<?xml version="1.0" encoding="UTF-8"?><svg id="Layer_2" xmlns="http://www.w3.org/2000/svg" viewBox="0 0 91.29 44.33"><defs><style>.cls-1{fill:#fff;}</style></defs><g id="Layer_1-2"><path class="cls-1" d="M37.76,27.23h-1.3v-1.3h1.3v1.3Zm-2.92-.43l.37,.05c.09,.06,.06,.33-.03,.37-.75-.03-1.26-.05-1.85-.05-.63,0-1.14,.02-1.88,.05-.09-.05-.12-.28-.03-.37l.37-.05c.88-.1,.91-.31,.91-1.9v-5.33c0-1.59-.03-1.84-.91-1.91l-.37-.03c-.09-.06-.06-.33,.03-.37,.75,.03,1.26,.05,1.88,.05s1.11-.02,1.85-.05c.09,.05,.12,.31,.03,.37l-.37,.03c-.88,.07-.91,.33-.91,1.91v5.33c0,1.59,.03,1.8,.91,1.9m-11.09,4.11h19.05V13.13H23.75V30.91Z"/><path class="cls-1" d="M64,27.32h-1.3v-1.3h1.3v1.3Zm-2.16-3.7l-.24,.03c-.63,.07-.64,.49-.64,1.26v.84c0,.6,.09,.96,.36,1.06,.04,.05,.04,.14-.02,.18-.18,0-.45,.06-.73,.13-.79,.21-1.87,.39-2.68,.39-1.78,0-3.41-.49-4.56-1.66-.9-.9-1.38-2.08-1.38-3.4s.42-2.56,1.35-3.55c1-1.05,2.48-1.75,4.74-1.75,.85,0,1.65,.16,1.9,.22,.29,.06,.75,.17,.93,.13,0,.49,.09,1.27,.22,2.17-.04,.12-.31,.14-.4,.05-.42-1.62-1.54-2.12-3.07-2.12-2.9,0-4.17,2.06-4.17,4.31,0,2.87,1.48,5.13,4.49,5.13,.93,0,1.48-.19,1.65-.45,.08-.11,.15-.38,.15-.85v-.6c0-1.26-.05-1.35-.97-1.45l-.66-.07c-.12-.06-.11-.33,0-.38,.43,.03,1.26,.05,2.14,.05,.58,0,1.09-.02,1.59-.05,.1,.06,.12,.28,.01,.38m-14.02-10.49V0h-.35V30.92h19.05V13.13h-18.7Z"/><path class="cls-1" d="M17.52,27.23h-1.3v-1.3h1.3v1.3Zm-2.51-.04c-.72-.03-1.22-.04-1.81-.04-.61,0-1.15,.01-1.81,.04-.09-.04-.12-.28-.03-.37l.28-.05c.91-.15,.91-.3,.91-1.87v-2.11c0-.45-.03-.48-.75-.48H7.54c-.72,0-.75,.03-.75,.48v2.11c0,1.57,.07,1.78,.91,1.87l.43,.05c.09,.06,.06,.33-.03,.37-.81-.03-1.31-.04-1.9-.04-.64,0-1.15,.03-1.73,.04-.09-.04-.12-.28-.03-.37l.25-.05c.84-.15,.87-.3,.87-1.87v-5.38c0-1.57-.1-1.82-.88-1.88l-.39-.03c-.09-.06-.06-.33,.03-.37,.73,.01,1.24,.04,1.88,.04,.58,0,1.09-.01,1.73-.04,.09,.04,.12,.31,.03,.37l-.28,.03c-.87,.09-.9,.31-.9,1.88v1.72c0,.46,.03,.48,.75,.48h4.27c.72,0,.75-.01,.75-.48v-1.72c0-1.57-.03-1.79-.91-1.88l-.28-.03c-.09-.06-.06-.33,.03-.37,.69,.03,1.19,.04,1.81,.04s1.09-.01,1.76-.04c.09,.04,.12,.31,.03,.37l-.31,.03c-.87,.09-.9,.31-.9,1.88v5.38c0,1.57,.03,1.76,.9,1.87l.36,.05c.09,.06,.06,.33-.03,.37M0,13.13V30.91H18.7v13.29h.35V13.13H0Z"/><path class="cls-1" d="M27.83,41.63c-.02-.15-.14-.61-.67-.61-.6,0-.79,.58-.79,1.14s.19,1.14,.79,1.14c.43,0,.6-.3,.67-.69h1.25c0,.84-.68,1.73-1.89,1.73-1.34,0-2.1-.95-2.1-2.17,0-1.31,.83-2.17,2.1-2.17,1.14,0,1.77,.61,1.88,1.64h-1.24Z"/><path class="cls-1" d="M38.52,42.75l-.37-1.28h-.01l-.4,1.28h.79Zm-1.01-2.67h1.25l1.51,4.15h-1.32l-.18-.59h-1.32l-.19,.59h-1.29l1.53-4.15Z"/><path class="cls-1" d="M48.65,41.99h.49c.33,0,.68-.02,.68-.44,0-.38-.29-.4-.6-.4h-.57v.84Zm-1.28-1.91h2.14c1.13,0,1.52,.83,1.52,1.42,0,1.01-.67,1.48-1.63,1.48h-.76v1.26h-1.28v-4.15Z"/><rect class="cls-1" x="58.21" y="40.08" width="1.28" height="4.15"/><polygon class="cls-1" points="67.87 41.15 66.7 41.15 66.7 40.08 70.31 40.08 70.31 41.15 69.15 41.15 69.15 44.23 67.87 44.23 67.87 41.15"/><path class="cls-1" d="M79.27,42.75l-.37-1.28h-.01l-.4,1.28h.79Zm-1.01-2.67h1.25l1.51,4.15h-1.33l-.17-.59h-1.32l-.19,.59h-1.28l1.53-4.15Z"/><polygon class="cls-1" points="88.17 40.08 89.45 40.08 89.45 43.17 91.29 43.17 91.29 44.23 88.17 44.23 88.17 40.08"/></g></svg>