<svg xmlns="http://www.w3.org/2000/svg" xmlns:xlink="http://www.w3.org/1999/xlink" width="140" height="20" viewBox="0 0 140 20">
    <defs>
        <path id="a" d="M.164.39H11.68v19.366H.164V.389z"/>
        <path id="c" d="M14.534 19.765H.03V.403h14.504z"/>
    </defs>
    <g fill="none" fill-rule="evenodd">
        <path fill="#2D4266" d="M20.726.967l-7.182 18.317c-.11.278-.44.507-.734.507H9.782a.581.581 0 0 1-.567-.545l-.562-9.233-4.067 9.28c-.12.273-.459.498-.755.498H.806a.553.553 0 0 1-.544-.546L0 1.005A.533.533 0 0 1 .53.463h2.317c.294 0 .535.246.536.544l.028 13.279c.001.298.097.32.215.046L9.329.96c.12-.277.457-.499.751-.499h2.226c.294 0 .438.222.316.498l-1.106 2.526.51 10.8c.014.297.113.316.22.035L17.372.969c.108-.28.437-.507.73-.507h2.29c.293 0 .445.226.335.505M37.106.995l-3.47 18.291a.681.681 0 0 1-.637.537h-2.2c-.294 0-.49-.243-.434-.537l1.341-7.07c.055-.296-.14-.538-.435-.538h-5.1a.684.684 0 0 0-.64.537l-1.34 7.071a.685.685 0 0 1-.64.537h-2.167c-.296 0-.49-.243-.437-.537L24.39.996a.682.682 0 0 1 .638-.538h2.199c.294 0 .49.243.434.537l-1.322 6.972c-.056.295.14.536.434.536h5.64L33.834.995a.683.683 0 0 1 .637-.537h2.199c.296 0 .492.243.435.537M52.958.995l-.387 2.1a.677.677 0 0 1-.635.537h-6.785a.68.68 0 0 0-.638.537l-.72 3.798c-.056.295.14.536.435.536h6.503c.295 0 .49.24.434.538l-.41 2.1a.689.689 0 0 1-.641.537h-6.489a.679.679 0 0 0-.637.537l-.74 3.894c-.056.295.14.537.434.537h6.752c.297 0 .493.244.437.536l-.387 2.104a.678.678 0 0 1-.636.537h-10.04c-.295 0-.49-.243-.434-.537l3.47-18.29a.682.682 0 0 1 .638-.538h10.039c.296 0 .493.243.437.537M68.847.995l-.387 2.1a.678.678 0 0 1-.635.537h-6.784a.681.681 0 0 0-.638.537l-.721 3.798c-.057.295.14.536.433.536h6.505c.295 0 .49.24.431.538l-.409 2.1a.683.683 0 0 1-.64.537h-6.488a.684.684 0 0 0-.64.537l-.737 3.894c-.056.295.14.537.434.537h6.753c.294 0 .492.244.437.536l-.388 2.104a.679.679 0 0 1-.636.537h-10.04c-.295 0-.492-.243-.436-.537l3.47-18.29a.685.685 0 0 1 .64-.538H68.41c.296 0 .492.243.437.537"/>
        <g transform="translate(69.934 .068)">
            <mask id="b" fill="#fff">
                <use xlink:href="#a"/>
            </mask>
            <path fill="#2D4266" d="M11.672 17.115l-.388 2.102a.68.68 0 0 1-.636.539H.608c-.295 0-.49-.244-.435-.539L3.643.927A.685.685 0 0 1 4.281.39H6.48c.296 0 .491.243.435.538l-2.97 15.65h7.29c.294 0 .492.246.437.538" mask="url(#b)"/>
        </g>
        <g transform="translate(84.944 .068)">
            <mask id="d" fill="#fff">
                <use xlink:href="#c"/>
            </mask>
            <path fill="#2D4266" d="M13.668 5.242h-1.776c-.505 0-.652-.26-.69-.695-.05-.562-.35-.972-.975-.972H7.54c-.865 0-2.038.787-2.224 1.667-.023.127-.036.187-.06.313-.094.566-.031 1.163.401 1.412 2.37 1.388 3.556 1.787 5.927 3.166 1.388.822 1.76 2.114 1.42 3.877l-.216 1.067c-.494 2.642-2.81 4.688-5.432 4.688H4.146c-2.392 0-4.189-1.833-4.114-4.18.015-.498.293-.697.766-.697h1.75c.55 0 .746.26.812.697.087.573.437 1.003 1.063 1.003h3.055c.864 0 1.947-.82 2.1-1.7.075-.353.11-.527.185-.878.124-.6.032-1.135-.432-1.42-2.358-1.394-3.538-1.8-5.895-3.196-1.39-.817-1.791-2.078-1.452-3.839l.063-.313C2.57 2.572 4.917.403 7.54.403h2.87c2.393 0 4.212 1.804 4.12 4.144-.017.45-.357.695-.863.695" mask="url(#d)"/>
        </g>
        <path fill="#2D4266" d="M122.823 1.017l-2.692 14.086c-.496 2.517-2.903 4.721-5.403 4.721h-3.365c-2.592 0-4.383-2.233-3.92-4.845l2.664-13.962a.68.68 0 0 1 .637-.539h2.2c.294 0 .49.242.433.539l-2.693 14.025c-.155.849.031 1.604.895 1.604h4.977l2.995-15.63c.058-.296.344-.538.638-.538h2.201c.294 0 .49.242.433.539M135.52.458h-7.303a.682.682 0 0 0-.639.538l-1.42 7.283-.609 3.217-1.441 7.79c-.056.293.14.538.433.538h2.199a.685.685 0 0 0 .64-.539l1.41-7.614h4.908c2.625 0 4.972-2.17 5.464-4.84l.31-1.502c.494-2.67-1.328-4.87-3.953-4.87m.713 4.807l-.373 1.628c-.153.88-1.234 1.602-2.098 1.602h-3.835c-.296 0-.491-.24-.433-.535l.768-3.792a.686.686 0 0 1 .641-.537h4.279c.864 0 1.204.754 1.05 1.634"/>
    </g>
</svg>
