<svg xmlns="http://www.w3.org/2000/svg" width="180" height="235" fill="none"><path fill="#fff" d="M10.166 7.52c.144-1.734.157-3.086.388-4.411.368-2.107 1.15-2.788 3.063-2.956 2.816-.247 3.693.38 3.806 2.785.051 1.087-.023 2.179.05 3.265.117 1.789.57 2.2 2.736 2.306 1.703.084 3.418.017 5.472.017.184-1.242.354-2.38.52-3.52.131-.897.141-1.822.41-2.69.611-1.988 3.696-2.998 5.621-1.782.563.355.896 1.219.938 1.867.122 1.883.043 3.775.043 5.908h8.623c.227-1.738.373-3.613.738-5.457.45-2.273 1.584-2.927 4.25-2.697 1.876.16 2.415.58 2.483 2.237.078 1.887.018 3.779.018 5.913h8.241c.176-.977.388-2.013.541-3.054.131-.895.064-1.825.312-2.692.622-2.17 3.16-3.196 5.44-2.137.602.279 1.075 1.109 1.173 1.735.196 1.25.062 2.535.12 3.803.093 2.017.515 2.45 2.782 2.549 2.017.087 4.043.018 6.354.018.207-1.157.422-2.197.573-3.243.13-.896.056-1.825.3-2.694.615-2.19 3.101-3.221 5.42-2.184.605.27 1.11 1.097 1.201 1.717.2 1.342.054 2.717.138 4.075.111 1.793.567 2.204 2.731 2.31 1.704.085 3.42.018 5.478.018.183-1.238.354-2.375.52-3.514.131-.898.141-1.823.407-2.691C91.667.33 94.762-.701 96.666.54c.615.4.901 1.389.956 2.129.134 1.79.043 3.594.043 5.634h7.591c.178-.994.38-2.03.544-3.071.154-.982.129-2 .429-2.946.565-1.783 1.292-2.166 3.469-2.147 2.389.02 2.976.483 3.099 2.574.069 1.177-.019 2.36.06 3.537.113 1.682.551 2.128 2.468 2.239 1.803.104 3.622.022 5.759.022.242-1.903.39-3.686.712-5.446.462-2.526 1.804-3.288 4.684-2.882 1.377.194 2.113.788 2.109 1.992-.006 1.899-.002 3.798-.002 5.8 2.169.849 4.268.582 6.698.406.226-1.79.372-3.575.694-5.338.433-2.374 1.434-3.035 4.064-2.895 2.049.109 2.646.567 2.715 2.325.071 1.805.016 3.614.016 5.487 2.729 1 5.368.449 8.25.55.2-1.238.385-2.285.534-3.337.127-.895.085-1.822.34-2.688.566-1.926 1.356-2.383 3.63-2.343 2.287.04 2.876.467 3.013 2.362.091 1.266-.012 2.542.079 3.808.118 1.65.571 2.055 2.536 2.19 2.244.156 4.504.156 6.747.322 2.975.22 3.633.559 4.053 3.017.735 4.301 1.482 8.632 1.665 12.967.494 11.688.753 23.383.994 35.077.209 10.148.459 20.298.316 30.446-.082 5.843.42 11.572 1.788 17.29.789 3.3.728 6.602-.213 9.968-.704 2.52-.776 5.221-.694 7.832.283 8.974.982 17.941 1.096 26.915s-.296 17.952-.449 26.929c-.089 5.254-.141 10.508-.18 15.762-.024 3.26.003 6.52.017 9.78.032 7.531.466 15.039 1.935 22.481a42 42 0 0 0 1.05 4.236c.494 1.596.008 2.387-1.894 2.73a5.3 5.3 0 0 1-1.28.09c-10.631-.703-21.239.216-31.858.289-5.354.037-10.711-.468-16.068-.477-12.135-.021-24.242-.418-36.336-1.264-2.988-.209-6.033-.282-9.01-.048-6.489.509-12.868.011-19.219-1.005-4.252-.68-8.505-.747-12.82-.542-8.466.401-16.942.721-25.418.874-2.754.05-5.574-.337-8.272-.862-2.553-.496-5.037-.835-7.63-.452-.845.125-1.705.203-2.56.233-2.726.093-3.617-.653-3.765-3.009-.204-3.25-.529-6.495-.638-9.747-.07-2.076-.187-4.221.317-6.227 1.291-5.145.837-10.264.474-15.433-.43-6.148-.766-12.318-.653-18.472a203 203 0 0 0-1.024-24.183c-.31-3.064-.138-6.162-.185-9.245l-.413-27.19c-.056-3.716.072-7.442-.198-11.147a314 314 0 0 1-.204-42.69c.578-9.15.943-18.295.697-27.466-.192-7.16.03-14.326.131-21.49.023-1.626.282-3.252.49-4.872.175-1.361 1.072-2.113 2.751-2.162 1.697-.054 3.393-.147 5.47-.237m160.986 219.123c.771-3.278 1.712-34.975.931-37.558l-3.038 13.423c-.529-.853-.643-1.667-.508-2.451.418-2.42.909-4.833 1.413-7.243.728-3.477 1.966-6.93 2.148-10.425.487-9.328.594-18.672.727-28.01.142-9.886.108-19.775.225-29.661.028-2.352.085-4.746.608-7.042.705-3.093.659-6.131.053-9.187-1.229-6.191-1.9-12.386-1.198-18.68.33-2.963.257-5.983.034-8.96-.427-5.698-1.195-11.376-1.628-17.073-.455-5.97-.715-11.952-.999-17.93-.154-3.26-.228-6.523-.254-9.786-.052-6.436.008-12.87-.102-19.305-.029-1.685-.511-3.365-.812-5.213-3.477-.098-6.614-.123-9.69.008-.411 1.365-.385 2.211.598 3.066 1.203 1.048.976 5.076-.282 5.956-.508.355-1.343.503-2.035.514-1.065.018-2.132-.18-3.201-.255-3.771-.26-3.965-.537-3.566-3.66.234-1.827 1.036-3.714-.089-5.542h-7.99c.509 1.159.723 2.104 1.298 2.853 1.001 1.303 1.124 5.04-.127 6.038-.476.38-1.331.596-2.008.588-1.496-.017-2.993-.195-4.482-.357-2.184-.236-2.614-.625-2.498-2.437.081-1.262.386-2.514.497-3.777.083-.946.016-1.9.016-2.894h-6.929c.555 1.18.807 2.114 1.391 2.864.997 1.282 1.049 5.066-.19 6.054-.419.334-1.144.582-1.713.561-1.819-.067-3.634-.255-5.443-.448-1.251-.133-1.933-.785-1.843-1.86.114-1.355.371-2.7.475-4.055.079-1.03.016-2.066.016-3.117h-7.608c-.4 1.946-.346 1.914.702 3.059.421.46.818 1.095.808 1.645-.02 1.076-.261 2.16-.547 3.215-.301 1.108-1.181 1.69-2.589 1.572-1.174-.1-2.347-.223-3.523-.308-3.494-.253-3.801-.627-3.398-3.537.255-1.844.895-3.718.029-5.69h-7.148c.16.922-.038 2.047.474 2.37 2.576 1.623 1.176 3.628.962 5.49-.15 1.31-1.21 1.84-2.75 1.655-.639-.075-1.274-.177-1.914-.227-5.299-.418-5.305-.416-4.687-4.893.087-.629.326-1.245.381-1.873.068-.778.016-1.564.016-2.43H82.33c-.376 1.215-.35 2.062.627 2.92 1.208 1.06.997 5.062-.264 5.954-.505.358-1.34.51-2.032.523-1.064.02-2.132-.18-3.2-.255-3.783-.26-3.98-.538-3.58-3.65.236-1.83 1.02-3.714-.128-5.65-2.788.056-5.532-.386-8.236.25-.303 1.172-.277 2.014.727 2.861 1.2 1.013.913 5.114-.348 5.956-.518.346-1.355.48-2.049.483-1.174.006-2.348-.177-3.524-.265-3.29-.252-3.622-.651-3.238-3.415.257-1.849.335-3.716.51-5.758H49c.55 1.178.796 2.114 1.378 2.863.997 1.283 1.054 5.06-.183 6.053-.418.335-1.14.582-1.71.565-1.713-.052-3.418-.255-5.126-.398-1.56-.13-2.324-.846-2.164-2.178.162-1.351.416-2.695.54-4.05.084-.94.015-1.89.015-2.83h-8.276c-.057 1.95-.057 1.95.806 2.886 1.084 1.175.997 5.114-.233 6.043-.43.325-1.156.546-1.733.526-1.712-.058-3.418-.255-5.125-.404-1.583-.14-2.27-.906-2.103-2.221.171-1.35.422-2.695.547-4.048.086-.936.017-1.88.017-2.787h-7.705c-.529 1.3-.372 2.181.75 3.085 1.192.963.683 5.231-.62 5.96-.557.311-1.397.361-2.105.355-1.177-.012-2.35-.166-3.526-.262-3.038-.247-3.443-.715-3.069-3.29.336-2.312.925-4.628.19-7.176H4.606c-.085 1.127-.216 2.102-.22 3.078-.015 3.629.07 7.258.005 10.885-.066 3.713-.374 7.422-.372 11.133.003 3.988.421 7.98.344 11.965-.135 6.98-.708 13.956-.739 20.937-.05 11.596-.43 23.188 1.161 34.775.95 6.915.786 13.94 1.061 20.918.114 2.895.195 5.798.07 8.691-.384 8.879-1.019 17.745-.218 26.642.48 5.325.487 10.68.668 16.023.231 6.793.212 13.599.705 20.377.336 4.632.701 9.225-.26 13.819-.806 3.853-1.286 7.693-.65 11.625.271 1.676-.126 3.43-.228 5.148-.047.79-.115 1.58-.199 2.709l5.644-.95-3.422-1.144.14-.642c1.336 0 2.693-.128 4.004.023 4.622.532 9.21.216 13.814-.149 2.986-.236 5.998-.454 8.988-.379 2.212.056 4.571.105 6.47 1.534-8.436-1.41-16.617 1.328-24.998.924 2.364.877 4.818 1.357 7.396 1.276 6.327-.197 12.653-.419 18.98-.636 1.373-.047 2.745-.115 4.616-.195l-2.292-1.485c.334-.219.493-.415.65-.413 9.333.086 18.664-.05 27.976.876 6.17.613 12.373.913 18.63.246 4.558-.486 9.205-.538 13.809-.51 5.04.03 10.079.343 15.114.598 1.666.085 3.316.375 4.974.571l-.038.762c-11.426.51-22.955-1.228-34.332.532 9.539.606 19.073.973 28.611 1.272 2.464.077 4.937-.087 7.405-.093 3.431-.008 6.863.001 10.294.052 3.968.059 7.935.27 11.901.238 7.616-.061 15.231-.245 22.846-.384.822-.015 1.644-.067 2.814-.116-.112-1.354.31-2.899-.409-3.564-1.485-1.374-1.143-2.826-1.157-4.302-.016-1.629.202-3.259.19-4.887-.011-1.524-.189-3.047-.294-4.571-.493 5.46.33 10.98-1.382 16.014-1.499-.259-2.529-.619-3.53-.569-1.704.085-3.382.49-5.085.65-2.768.259-5.632.879-8.3.52-3.329-.448-6.606-.279-9.903-.395-1.394-.049-2.798.014-4.184-.098-.615-.049-1.195-.405-1.792-.621.851-.414 1.584-.488 2.319-.495 2.897-.027 5.812-.203 8.688.004 2.718.195 5.528-1.424 8.146.296 4.067-.743 8.135-1.483 12.117-2.208M124.296 2.416c-.167 1.3-.396 2.45-.449 3.607-.162 3.509-.266 7.02-.369 10.53-.027.916.401 1.613 1.622 1.642 1.201.026 2.049-.456 2.348-1.47.1-.34.078-.715.061-1.07-.133-2.784-.264-5.566-.425-8.348-.093-1.602-.24-3.201-.369-4.89zm-30.969.128c-.16 1.303-.378 2.46-.43 3.622-.158 3.419-.257 6.84-.362 10.261-.027.884.257 1.625 1.482 1.77 1.184.139 2.302-.563 2.53-1.616.073-.346.027-.714.005-1.072-.128-2.152-.28-4.305-.392-6.457-.094-1.8-.124-3.601-.219-5.4-.074-1.38-.96-1.674-2.614-1.108m-48.609.035c-.177 4.564-.362 9.137-.525 13.712-.035.973.205 1.834 1.646 1.91 1.355.07 2.341-.756 2.434-2.02.013-.178-.022-.359-.032-.538q-.21-4.04-.422-8.078c-.07-1.35-.123-2.701-.228-4.05-.098-1.247-.97-1.467-2.873-.936m-16.006-.01c-.217 3.647-.447 7.233-.635 10.82-.056 1.08-.149 2.186.075 3.233.122.572.874 1.471 1.34 1.47.8-.002 1.726-.479 2.347-.98.352-.284.285-1.013.263-1.538-.105-2.514-.262-5.027-.394-7.54-.075-1.44-.138-2.88-.205-4.318-.06-1.35-.866-1.74-2.79-1.147Zm109.558.037c.303 2.392-1.17 4.698.306 7 .162.253.114.76-.087.996-1.684 1.983-.687 4.198-.746 6.297-.032 1.145 1.284 1.611 2.566 1.137 1.315-.486 1.455-1.415 1.379-2.483-.173-2.43-.288-4.862-.416-7.293-.081-1.535-.125-3.071-.216-4.606-.08-1.385-.958-1.68-2.786-1.048m-27.327-.112c-1.873-.458-2.616.07-2.675 1.162q-.343 6.347-.545 12.698c-.03.945.3 1.886 1.753 1.835 1.349-.047 2.204-.654 2.161-1.887-.045-1.261-.144-2.521-.206-3.782-.166-3.32-.324-6.641-.488-10.026m-31.036-.037c-2.372.045-2.513.037-2.637 1.607-.262 3.328-.377 6.663-.519 9.998-.038.899-.143 1.845.131 2.688.182.558.914 1.29 1.522 1.386 1.102.17 2.104-.313 2.252-1.434.07-.534.011-1.08-.01-1.62-.094-2.343-.168-4.688-.3-7.03-.107-1.871-.29-3.74-.439-5.595m-16.655.08c-1.9-.532-2.617.032-2.677 1.118a567 567 0 0 0-.545 12.7c-.03.947.302 1.886 1.755 1.834 1.35-.049 2.202-.657 2.158-1.889-.045-1.261-.144-2.522-.207-3.783-.163-3.318-.322-6.64-.484-9.98m-47.704.013c-2.086-.62-2.65.198-2.71 1.326a549 549 0 0 0-.506 12.432c-.028.936.253 1.852 1.706 1.898 1.344.041 2.26-.752 2.204-2.127-.184-4.494-.454-8.984-.694-13.53Zm141.06-.013c-2.14-.68-2.577.329-2.655 1.524-.215 3.33-.365 6.665-.507 9.998-.039.9-.143 1.846.13 2.688.182.56.913 1.293 1.521 1.387 1.102.172 2.104-.311 2.253-1.431.071-.534.012-1.08-.01-1.62-.094-2.342-.169-4.688-.303-7.03-.106-1.871-.288-3.74-.429-5.516M82.729 229.864l-20.579-1.41c6.736 1.983 13.652 1.766 20.58 1.41Z"/><path fill="#fff" d="M168.734 225.756c-.554.231-1.081.583-1.666.674-5.493.855-10.967 1.218-16.618.941-11.446-.563-22.909-1.302-34.406-.561-3.729.24-7.499.061-11.25.007-4.827-.07-9.652-.197-14.478-.319-6.963-.175-13.926-.372-20.889-.551-7.183-.185-14.372-.282-21.549-.568-4.706-.188-9.397-.636-14.093-.987a2.3 2.3 0 0 1-1.35-.552c1.8 0 3.6-.009 5.4.002 6.865.041 13.734-.001 20.596.16 6 .14 11.991.53 17.988.771 2.784.112 5.572.161 8.36.188 5.89.058 11.782.115 17.673.113 7.831-.003 15.663-.144 23.492-.074 7.615.068 15.232.243 22.839.53 4.723.178 9.412.441 14.116-.268 1.835-.277 3.747-.189 5.624-.268q.107.38.211.762M28.181 83.742q.195-.173.208-.356a.7.7 0 0 0-.1-.387q-.081-.205-.166-.136-.204.081-.211.326l-.006.245.04.088.069.084.066.055zm22.644-29.577.365.3q.296.213.296.52l.046 1.368q-.012.184-.239.36-.257.177-.236.39l.064 2.465-.021.093-.082.1q-.378.495-.377.8l.024.547.024.547a.58.58 0 0 1-.139.441l-.166.17-.166.169.042 1.338.021.212q.015.15-.009.214-.05.097-.133.197l-.196.172-.332.338q-.303.336-.306.61l.058.88.03.912q.021.212-.205.387-.311.245-.278.577l.033.332.003.336q.009.395-.366 1.227l-.05.096-.02.124.025.547.024.547-.048.127-.051.096q-.381.465-.35.768l-.004.58.055.544a.55.55 0 0 1-.142.41l-.167.17-.135.166.018.792.018.791a.49.49 0 0 1-.142.411l-.112.103-.109.133a.4.4 0 0 0-.09.314l.048.788-.012.795q.003.03-.054.067l-.082.1q-.305.304-.278.576.018.487-.356 1.013l-.052.096-.02.094.05 1.124q.004.334-.356 1.012a.7.7 0 0 0-.09.314l.033.333q.033.332-.248.574l-.082.1-.081.1a.4.4 0 0 0-.012.183l.093 2.463-.268.362-.112.103q-.058.036-.051.097l.063 1.55.012.12-.021.094-.051.097-.082.1-.166.169-.136.166a.7.7 0 0 0-.01.215l.025.241.021.212q.015.15-.009.214-.05.097-.133.197l-.166.169-.082.1-.05.096.084 1.762q.03.302-.317.794l-.082.1-.021.094.024.546.027.578a.2.2 0 0 1-.072.19l-.109.133-.109.133q-.139.135-.124.287l.003.335.003.335-.02.094-.052.097q-.348.492-.317.794l.1 2.218-.27.363-.081.1q-.054.066-.051.096l.015.761.048.789a.4.4 0 0 1-.09.314l-.11.133-.078.13-.084.07-.052.096-.018.124.012.121.11 2.003q.02.517-.379 1.411.079.48-.214.601a2 2 0 0 1-.296.091l-.332.033q-.27.058-.575-.247-.171-.197-.377-.115l-.242.024-.211.021q-.454.046-.49-.317l-.057-.879-.06-.91a.6.6 0 0 1 .247-.574q.196-.172.175-.383L39.93 99.9l.05-.097.055-.066.33-.369-.003-.335-.034-.333q-.054-.239.115-.377l.166-.17.133-.196-.166-.136-.166-.136q-.197-.132.027-.338a.55.55 0 0 0 .239-.36l.009-.214-.024-.242q-.04-.393.214-.601a.45.45 0 0 0 .209-.357l-.025-.241-.084-1.762-.034-.332a.4.4 0 0 1 .091-.314l.166-.17q.08-.13.133-.196l.046-.157-.016-.151a.7.7 0 0 1 .091-.314l.142-.106.109-.133a.4.4 0 0 0 .09-.315l-.048-.788-.048-.789.054-.066.082-.1.166-.169a.4.4 0 0 0 .133-.196.5.5 0 0 0 .009-.215l-.021-.211-.03-.913.301-.335.082-.1.051-.097-.087-1.791q-.03-.302.32-.765l.051-.096.052-.097-.028-.577-.054-.544q-.066-.664.387-1.015.15-.625-.073-1.03l-.096-.052-.097-.051-1.1 1.209.018.18-.015.155a.38.38 0 0 1-.154.29l-.145.076-.181.018a.55.55 0 0 0-.324.123l-.133.197-.081.1-.085.07-.178.047-.151.016a.45.45 0 0 0-.32.154l-.218.266-.248.268-.166.17a.5.5 0 0 1-.169.139.8.8 0 0 1-.238.054l-.245-.006-.242.024a.7.7 0 0 0-.208.052 1.2 1.2 0 0 0-.167.169l-.166.169q-.187.263-.287.791-.036.248-.338.278l-.484.049a.9.9 0 0 0-.58.302l-.631.704-.934.124-.084.07-.085.069-.021.094.006.06.07.085.1.081q.196.133.202.194.006.06-.188.262-.405.53-.954.523a.82.82 0 0 0-.614.275l-1.534 1.74-.484.049-1.07 1.205.019.182.015.15a.38.38 0 0 1-.154.29l-.136.167-.163.2-.22.235q-.137.166-.185.293l.009.09.012.122q.021.211-.175.383a.6.6 0 0 0-.215.602l.021.211.025.242q.12.598-.33.979l-.045.157.015.15q-.009.216-.09.315-.321.459-.287.792l.024.547.084.54a.58.58 0 0 1-.139.441l-.136.167-.136.166q-.027.033-.02.094l.042.117.081 1.121.112 1.118a.5.5 0 0 1-.06.311 3 3 0 0 1-.22.236.5.5 0 0 0-.104.193l-.009.215q.03.301-.142.411a.6.6 0 0 0-.247.574l.084.541.028.577q.024.242-.29.761l-.052.097-.021.093.09.907q.007.365-.304 1.221l-.022.093-.02.094.111 1.118-.021.093-.082.1q-.285.486-.256.789l.024.547.057.574a.5.5 0 0 1-.081.404l-.136.167-.136.166.07 1 .1.997a.5.5 0 0 1-.061.311l-.11.133-.078.13q-.32.459-.719.438l-.453.045-.423.043-.094-.021-.1-.082-.165-.136a1.2 1.2 0 0 0-.197-.133q-.063-.024-.211.021l-.09.009-.125-.018q-.248-.036-.272-.278l-.133-1.329-.066-.665-.052-.208q-.027-.273.049-.432a.4.4 0 0 1 .133-.197l.136-.166q.054-.066.042-.187l-.09-.907.017-.123-.039-.088a.53.53 0 0 0-.178-.257l-.133-.109-.133-.108a.48.48 0 0 1 .157-.26l.078-.13.112-.103-.066-.665-.103-1.332-.042-.118.018-.124.054-.066.052-.097.166-.169a.48.48 0 0 0 .111-.408l-.02-.211-.055-.239a.7.7 0 0 1 .01-.215l.135-.166.166-.169a.45.45 0 0 0 .082-.405.48.48 0 0 0-.248-.341l-.1-.082-.07-.084q-.099-.083-.12-.293-.051-.209.033-.278l.571-.698q.22-.237-.109-.478a.49.49 0 0 1-.22-.374l-.021-.212-.022-.211q-.084-.236.112-.408l.166-.169.136-.167.136-.166q.272-.332.245-.604l-.054-.544-.055-.544q-.03-.302.287-.791a.4.4 0 0 0 .073-.19l.009-.215q.003-.275.175-.384a.47.47 0 0 0 .205-.387l-.02-.211-.025-.242q-.03-.302.218-.571.193-.203.175-.384l-.046-.453-.042-.118q-.006-.06.021-.093l.188-.263.217-.266-.045-.453.247-.27.218-.265.136-.166.136-.166q.163-.2.112-.408-.045-.148.09-.315l.11-.132.11-.103q.08-.13.07-.22l-.012-.427q-.07-.39.184-.598a.54.54 0 0 0 .206-.387l-.088-.876q-.03-.302.215-.601l.166-.17-.139-.169-.163-.105a.49.49 0 0 1-.22-.375q-.028-.272.141-.41l.166-.17a.7.7 0 0 0 .106-.163l.012-.184-.015-.152a.38.38 0 0 1 .154-.29q.085-.069.166-.169.082-.1.073-.19.05-.402-.239-.556a.6.6 0 0 1-.33-.547l-.014-.456-.043-.423q-.02-.212.206-.387t.205-.387l-.148-1.785q-.048-.484.493-.568.271-.027.371-.251l-.036-.058-.07-.084-.096-.051-.1-.082q-.19-.072-.218-.344a.49.49 0 0 1 .143-.411l.108-.133.112-.103a.4.4 0 0 0 .057-.341l-.054-.544-.024-.547.193-.203.033.028.046-.768.06-1.226a.7.7 0 0 1 .07-.221l.081-.1.115-.072q.226-.176.22-.236t-.148-.26q-.171-.195-.178-.257.021-.094.248-.268.23-.145.269-.363.03-.309-.106-.447l-.142-.2-.172-.196.2-.142.764-.595q.423-.348.009-.825-.176-.227-.151-.29-.007-.06.22-.236.2-.141.224-.205-.006-.06-.182-.287l-.072-.115q-.066-.054-.07-.085l.076-.465.045-.462q.064-.585.471-.78l.115-.072.115-.073.568-.423-.212-.284a1 1 0 0 1-.15-.29q.178-.352-.21-.864-.068-.084-.02-.211a.65.65 0 0 0-.094-.632q-.209-.254.166-.474l.115-.073q.087-.039.085-.07l.58-1.827a.5.5 0 0 0-.082-.206l-.109-.172a.52.52 0 0 1-.075-.45l.148-.35.087-.345.339-.888q.19-.538.054-.677a2 2 0 0 0-.414-.172.36.36 0 0 1-.25-.372q.045-.157.202-.417a.3.3 0 0 1 .115-.072l.117-.042q.378-.19.602-.701.168-.445.435-.532l.117-.043.118-.042.469-.2.081.206.112.203q.045.147.266.217l.16.076.13.078.07.085a.3.3 0 0 1 .042.118q-.091.619.214 1.23l.076.144.075.145a.5.5 0 0 1-.027.339q-.22.54-.51 1.302l-.45 1.296a.47.47 0 0 0 .033.332l.075.145.106.143.042.117.01.09a61 61 0 0 0-1.094 4.016q-.064.282.236.831.042.119.03.302l-.043.188-.045.157q-.027.337-.371.556-.574.362-.121.927a.58.58 0 0 1 .163.411.6.6 0 0 1-.205.387l-.142.106-.142.105a.45.45 0 0 0-.182.324l-.072.8-.13.837-.369.281-.081.1a.4.4 0 0 0-.085.07l-.042.492-.045.462-.006.245a.7.7 0 0 1-.07.22 2 2 0 0 1-.166.17l-.2.142q-.39.374.052.819.305.304.245.616l-.006.245q.006.365-.22.54l.02.212-.051.097-.052.096-.108.133-.14.136.007.67-.06.007.05.513.125 1.544-.218.266-.217.266q-.027.034-.018.124l.009.09.238 2.693.013.12q.005.06-.022.094l-.136.166-.163.2-.084.07-.021.093.027.882.06.91q.003.03-.054.066l-.082.1q-.25.239-.211.326.111.202.41.142l.242-.024.212-.021q.483-.048.48-.384-.009-.396.215-.601a1.6 1.6 0 0 0 .302-.336.3.3 0 0 1 .17-.139l.24-.024q.3-.06.375-.22.182-.324.578-.333.214.01.371-.25.13-.227.58-.303.33-.063.317-.49-.011-.425.381-.464l.212-.022.241-.024q.275.003.411-.163l.166-.17q.631-.703.877-.697.211-.021.404-.224l.136-.166a.45.45 0 0 1 .2-.142l.09-.009.121-.012.121-.012.118-.042q.626-.46 1.227-.55l.09-.01.085-.069 1.13-1.212.163-.199.362.269.07.084.094.022.244.006a.8.8 0 0 0 .239-.055q.175-.078.208-.356.025-.369.11-.438.05-.097.38-.16l.12-.013.119-.042.084-.07.082-.1.133-.196.169-.138q.253-.21.172-.414.245.007.408-.194l.133-.196.166-.17q.227-.174-.106-.447l-.169-.166.604-.67q.303-.335.275-.608l-.057-.879-.03-.912q-.022-.212.205-.387.28-.242.248-.574-.021-.212.205-.387.257-.178.236-.39l-.064-1.55.021-.093.082-.1q.347-.492.347-.798l-.024-.546-.054-.544q-.033-.333.305-.61a.49.49 0 0 0 .175-.384l-.19-4.04q-.015-.456.589-.517l.241-.024q.635-.063.61-.305l.016-.154-.015-.151a.54.54 0 0 0-.182-.287q-.356-.21-.136-.444.225-.206.218-.266-.006-.06-.206-.224l-.166-.136q-.099-.081-.09-.296a.4.4 0 0 1 .09-.314.46.46 0 0 1 .441-.166q.308.03.375-.22.045-.157-.275-.309-.257-.126-.03-.302l.139-.136.112-.103q.106-.162.087-.344l-.048-.789-.049-.788q-.012-.426.348-.798l.17-.139.196-.172a.86.86 0 0 0 .235-.39q-.051-.209.109-.438l.136-.166.163-.2q.081-.099.09-.314l-.014-.15-.019-.182q0-.306.278-.577l.082-.1.081-.1a1 1 0 0 0 .043-.187l-.015-.456-.046-.453q-.026-.273.142-.411.14-.136.375.084t.514-.051q.468-.505.864-.209Zm-.473 48.964-.051.097q-.14.136-.045.462.09.296.31.366.034.027.058-.037l.082-.099.081-.1.052-.097a.4.4 0 0 1 .166-.169q.057-.036.242-.024l.12-.012.118-.042a.4.4 0 0 0 .166-.17l.052-.096.081-.1.133-.196.103-.194a1.2 1.2 0 0 1 .332-.338.66.66 0 0 0 .56-.209l.156-.26.16-.229 4.01-5.68.184-.294.214-.296q.027-.033-.012-.12l-.012-.121-.045-.148q-.039-.089-.012-.121.1-.224.266-.393.111-.103.057-.341l-.048-.179.012-.184a.5.5 0 0 1 .102-.193l.164-.2.214-.296.184-.293q.082-.1.028-.338l-.018-.182a.2.2 0 0 1 .045-.157q.126-.256.399-.589.353-.432.214-.906l-.139-.475-.081-.51.018-.124.051-.097.296-.396-.166-.746-.112-.507q-.114-.538-.746-.445l-.245-.006-.239.055q-.15.015-.202.112-.345.522-.746.47a1.2 1.2 0 0 0-.333.34l-.102.193-.133.196q-.214.297-.78.444a.2.2 0 0 0-.081.1l-.052.097a.43.43 0 0 0-.036.247l.054.24a.7.7 0 0 1-.12.316l-.11.133-.105.163a.4.4 0 0 0-.012.185l.048.178a.55.55 0 0 1-.057.341l-.215.296-.184.294-.163.199-.184.293-.215.296q-.081.1-.057.342l.048.178a.2.2 0 0 1-.045.157q-.045.157-.236.39l-.163.2-.133.196a1.1 1.1 0 0 1-.184.293l-.218.266q-.239.36-.081.71l-.1.223-.133.197-.184.293-.215.296a.45.45 0 0 0-.087.344l.048.178a.6.6 0 0 1-.012.185.64.64 0 0 1-.154.29l-.184.293a.71.71 0 0 1-.03.613l-.16.23-.16.23-.134.196-.133.196a.6.6 0 0 0 .019.487 1 1 0 0 1-.118.347l-.11.133-.108.133-.429.592.166.746.046.148.012.121-.109.133-.106.163a.64.64 0 0 0-.154.29l.018.182.019.181q.051.209-.088.344zm17.303-6.4-.063-.024-.06.006q-.091.009-.118.042l-.831 1.152-.828 1.18a.4.4 0 0 0-.04.219l.025.241q.03.303-.14.441a4 4 0 0 0-.214.296l-.184.293-.296.396a3 3 0 0 0-.236.39.2.2 0 0 0-.045.157l.048.178q.024.242-.054.372l-1.925 2.725q-.132.197-.407.194-.212.02-.668.646-.16.23-.079.435.143.505-.28.547-.39.07-.575.363a10 10 0 0 1-.531.785q-.027.034-.118.043l-.121.012-.154-.015q-.06.006-.088.039l-.38.465-.348.493-.184.293-.215.296q-.081.1-.323.124l-.178.048a.2.2 0 0 0-.145.076 3.6 3.6 0 0 0-.532.785q-.157.26-.613.275-.668.036-.816.387l-.078.13q-.025.063-.055.066l-.15.016-.122.012q-.15.015-.208.051a1.2 1.2 0 0 0-.166.169l-.133.197-.082.099-.081.1-.121.012-.121.012-2.508.251-.755.076-.659-.484-.136-.139-.163-.105a1.3 1.3 0 0 0-.354-.179l-.241.024a2 2 0 0 1-.248-.036l-.13-.078-.07-.085q-.274-.614-.57-.828-.167-.135-.257-.432l-1.194-5.526a.45.45 0 0 1 .054-.371l.079-.13.109-.133q.102-.193.042-.493a1.52 1.52 0 0 1 .133-1.112l.048-.126.021-.094a.66.66 0 0 1 .013-.49l.102-.193.133-.196q.024-.064.045-.157l-.048-.179a.84.84 0 0 1 .024-.368l.215-.296.214-.297.136-.166a.6.6 0 0 0 .13-.226l-.024-.242-.085-.236.296-.395.266-.393a.4.4 0 0 1 .085-.07l.12-.012q.387-.1.439-.196.081-.1.018-.43a1.7 1.7 0 0 1 .16-1.144l.048-.127-.009-.09q-.102-.418.115-.684l.296-.395.266-.393-.024-.242.009-.215a.62.62 0 0 1 .169-.444 1.7 1.7 0 0 0 .269-.362l.263-.423-.049-.178-.018-.182a.4.4 0 0 1 .118-.347.5.5 0 0 0 .136-.166l.1-.224a.72.72 0 0 1 .051-.707l.215-.296.217-.266q.157-.259.115-.683-.06-.3.447-.41l.12-.013.119-.042.081-.1.052-.096-.025-.242-.054-.239.263-.423a1.7 1.7 0 0 1 .269-.362.4.4 0 0 1 .172-.11l.236-.084q.265-.088.371-.25.073-.19.233-.42l.299-.366.178-.049.181-.018q.21-.05.288-.181l.1-.224a.4.4 0 0 1 .165-.169l.179-.048.18-.018q.213-.022.288-.181a.4.4 0 0 1 .133-.197l.166-.17.363-.035.362-.037q.212-.02.372-.25a.75.75 0 0 1 .574-.363l1.48-.148q.454-.045.532.435a.57.57 0 0 0 .257.432l.163.106.133.108a.6.6 0 0 1 .19.378l.124.628.154.626.055.239q.045.147.024.241a.8.8 0 0 1-.1.224l-.166.17-.266.392q-.19.233-.15.32.005.06.235.22.229.161.239.252.005.06-.155.29-.19.233-.139.44l.1.387.067.36q.18.593-.091.924-.136.166-.296.396l-.236.39q-.027.033.012.12l.043.119.015.15q.036.059.009.091l-.348.493-.347.492-.048.127.009.09a.66.66 0 0 1-.012.49l-.103.194-.133.196a.37.37 0 0 0-.04.218l.046.148.012.12q.052.21-.205.387a.65.65 0 0 0-.644.278l-.184.293a2 2 0 0 1-.184.293q-.027.034-.018.124l.036.058.006.06.045.148.012.121-.051.097-.082.1-3.314 4.695q-.187.262-.75.441a.4.4 0 0 0-.084.069l-.078.13-.012.185.048.178a.54.54 0 0 1-.057.341l-.4.589q-.08.1-.322.124l-.179.049a.2.2 0 0 0-.145.075l-.108.133-.106.163q-.105.164-.257.179-.423.042-.574.362-.157.26-.372.251-.368-.024-.54.39-.154.29-.36.066l-.073-.115-.07-.084q-.032-.333-.198-.468l-.1-.082q-.066-.054-.097-.051-.03.003-.085.069-.054.066-.048.127-.033.278.073.725l.1.387.066.359.012.121-.051.097q-.287.486-.215.906.119.569.51.834.194.103.246.311l.048.179.048.178.33.242.299.244q.233.191.474.166l1.239-.124 1.272-.096q.363-.036.54-.39.077-.16.285-.212l.178-.048.181-.018.079-.13.105-.163a1.2 1.2 0 0 1 .251-.239.34.34 0 0 1 .148-.045l.181-.018a.31.31 0 0 0 .285-.212l.136-.166.166-.169a.71.71 0 0 0 .64-.308l.184-.293q.133-.196.215-.297l.136-.166.133-.196.562-.789.562-.788q.027-.033.09-.009l.091-.009.06-.006.121-.013.121-.012.215-.296.184-.293q.238-.359.465-.535a.7.7 0 0 0 .64-.308l.185-.293.184-.293q.19-.233.48-.689l.481-.689q.19-.232.115-.683l.02-.093.05-.127a.3.3 0 0 1 .168-.139l.242-.024q.3-.061.339-.278l.015-.154-.049-.179q-.024-.241.058-.341l.214-.296.215-.296.827-1.182q.586-.852.538-1.03a.53.53 0 0 1 .046-.462l.132-.197.133-.196-.012-.12-.012-.122q-.063-.33-.009-.395.084-.07.499-.203a.4.4 0 0 0 .202-.112q.114-.072.103-.193 0-.61.187-.873l.429-.592q.075-.16.012-.49-.048-.178.408-.804l.051-.096.082-.1q.132-.195.245-.3.296-.395.416-.407.427-.012.381-.465-.01-.396.043-.493.054-.066.41-.163.152-.015.275.003l.094.021.063.024.064.025.033.027.003.03-.024.063-.012.185a1 1 0 0 0 .13.383l.145.23.033.027.003.03q-.23.145-.275.303l.01.09-.022.094a.4.4 0 0 1-.012.184l-.109.133-.045.157q-.145.075-.133.197a1 1 0 0 0-.139.136q-.015-.152-.076-.145a.7.7 0 0 0-.075.16l.009.09q-.254.21-.302.336-.03.003-.106.163l-.078.13-.079.13q-.232.42-.2.447l.122.598-.028.033q-.027.034 0 0l-.024.064-.094-.021-.057.036-.456.625-.456.626q-.136.166-.049.432l.085.236zm20.337 4.71a.55.55 0 0 0 .22.374.55.55 0 0 0 .24-.359l.005-.245q-.02-.212-.247-.341a.55.55 0 0 0-.24.359zm-3.716 9.221a.38.38 0 0 0 .245-.299q.042-.188-.055-.239-.1-.081-.413.133l-.013.184q-.088.344.236.221m-.716 1.689q-.02-.517.317-.795.195-.203.173-.414l-.025-.241.04-.218q-.245-.006-.04-.393a4 4 0 0 0-.45.381q-.429-.018-.453.35l-.036.248a.3.3 0 0 1-.103.194q-.42.377-.38.77.002.03-.052.097l-.082.099q-.081.1-.296.091l-.18.018-.149.046q-.175.078-.175.383l-.04.218a.27.27 0 0 1-.132.196l-1.532 1.466-.154-.016-.185-.012a.38.38 0 0 0-.287.182.7.7 0 0 0-.09.314l.006.366a.59.59 0 0 1-.278.577q-.227.174-.206.386l.013.121q.006.06-.022.094-.105.163-.299.365l-.166.17-.169.139-.166.169a.5.5 0 0 0-.136.166.43.43 0 0 0-.036.248l-.006.244-.016.46q-.084.07-.25.238l-.22.236q-.31.275-.653.187a.24.24 0 0 0-.088.04l-.112.102q-.078.13.154.321.24.25-.042.492-.224.206-.205.387l.015.151a.2.2 0 0 0-.021.094l-.333.338-.302.335-.196.173a.5.5 0 0 0-.136.166.7.7 0 0 0-.01.214l-.005.245-.015.459-.14.136-.141.106a.7.7 0 0 0-.185.293l-.015.154-.015.154a.48.48 0 0 1-.184.293.59.59 0 0 0-.278.577q.093.632-.417 1.019l-.28.241-.252.239-.027.338.006.366q-.004.275-.142.411l-.667.647a.5.5 0 0 0-.112.102q-.027.034-.024.064l.169.166.139.169.07.085.008.09-.166.17-.169.139a.4.4 0 0 0-.076.16l-.012.184q-.009.215-.093.284l-.166.169-.136.166a.73.73 0 0 0-.11.438v.611l-.002.58a.75.75 0 0 1-.308.58q-.142.105-.172.414l-.04.217q-.052.097-.106.164l-.141.105-.11.133a.38.38 0 0 0-.12.318l-.01.824-.008.825-.006.245a.5.5 0 0 1-.01.214.8.8 0 0 1-.162.2l-.17.139-.081.1q-.054.066-.024.063l.308.335q.136.14.106.447l-.003.581-.003.58q-.019.43.353.788l.339.333.166-.17 1.166-1.154.25-.239.282-.241a.58.58 0 0 0 .238-.36l.04-.217.07-.221.667-.646q.223-.206.245-.605l-.025-.241.037-.248q-.01-.091.105-.163.453-.351.378-.801l.136-.166.166-.169a.38.38 0 0 0 .154-.29l.012-.185.015-.154q.022-.094.136-.166l.197-.172a.4.4 0 0 0 .124-.287l.012-.185.045-.157.136-.166.196-.172.17-.139.166-.169a.75.75 0 0 0 .275-.608q-.015-.15.238-.359.254-.208-.048-.484-.235-.22-.034-.332l.085-.069.088-.04a.87.87 0 0 0 .453-.045q.175-.078.178-.659l.015-.459.015-.459q-.006-.06.052-.097l.114-.072q.306-.306.315-.825l.009-.215q-.015-.15.039-.217a.4.4 0 0 1 .133-.197l.2-.142q.081-.1.09-.314l.012-.184a.5.5 0 0 1 .079-.13q.395-.62.416-1.018l.037-1.164q.009-.214.238-.359a.46.46 0 0 0 .236-.39l-.003-.335a1 1 0 0 1 .024-.369q.018-.123.188-.263l.141-.105.11-.133.044-.157.016-.155q.009-.214.12-.317l.112-.103.14-.136a.45.45 0 0 0 .087-.344l.003-.58.033-.583q-.003-.03.054-.067l.112-.102q.306-.306.317-.795-.006-.366.348-.798l.084-.069.049-.127v-.915q.02-.4.244-.605l.248-.269.25-.238q.255-.209.246-.605l.027-.948.02-.094.083-.1q.356-.402.38-.77m.78-2.58q-.212.02-.281.241l-.01.215q.135-.197.29-.456Zm-.267-22.8.169.167q.23-.146.154-.29l-.07-.085-.1-.081q-.229.144-.153.29Zm-.819 2.493.17-.139q.075-.16-.155-.32l-.085.07-.081.1q-.109.132.151.29Zm-6.423 8.699.066.054q.134.109.324-.124l-.07-.084-.1-.082q-.132-.108-.32.154zM89.837 84.5q-.115.072-.139.136l-.018.124.012.12q-.037.554.284.4.264-.12.175-.384l.019-.124-.01-.09q-.15-.291-.323-.182m14.865 2.175-.003.58-.006.245a.8.8 0 0 1-.006.244l-.136.166-.199.142-.166.17-.166.169-.17.139a.6.6 0 0 0-.139.44q.016.152-.54.696a.53.53 0 0 1-.411.163q-.399-.02-.45.38l-.019.125-.021.093-.018.124-.084.07q-.163.199-.315-.091-.177-.257-.323-.181-.266.087-.205.387l.042.117a.3.3 0 0 1-.048.127l-.417.408-.417.408q-.112.103-.112.408-.012.184-.568.728a.6.6 0 0 1-.414.133q-.369-.025-.45.38-.054.373-.139.442-.054.066-.387.1-.422.042-.417.407-.003.276-.172.414-.25.24-.347.798-.187.263-.586.242-.264.118-.568.423l-.251.238-.25.24q-.252.237.017.486.236.22.097.356a.51.51 0 0 1-.417.103l-.12.012a.3.3 0 0 0-.119.042l-1.837 1.77-.18.019-.185-.012a.4.4 0 0 0-.29.151.2.2 0 0 0-.046.157l-.042.187q-.009.215-.093.284-.414.438-.408.804.008.091-.076.16a.7.7 0 0 1-.202.112q-.372-.054-.816.387-.054.066-.175.078l-.245-.006q-.363.037-.38.466l-.007.244.025.242q.03.301-.206.387-.145.075-.326-.212-.152-.29-.311-.06l-.085.069-.021.094-.012.49q.009.395-.245.604l-.335.308-.333.338-.039.218-.07.22q-.066.252-.238.36l-.281.242-.25.238-.137.167.308.335q.375.39-.072.801l-.332.338-.333.338q-.084.07-.09.315l-.015.154a.4.4 0 0 1-.076.16q-.41.468-.41.773l-.028.949-.021.094-.085.069-.332.339.139.169.139.169q.293.185-.027.338l-.088.04-.12.012q-.279-.033-.418.103l-.084.069a.2.2 0 0 0-.021.094l.169.166.169.166a.8.8 0 0 1 .094.326q.021.212-.06.311l-.167.17q-.256.178-.269.362l-.018 1.65q0 .305-.517.326-.425.012-.42.378 0 .305-.304.61l-.115.073q-.058.036-.055.066l-.045 1.073-.018 1.039q0 .306-.338.583a.49.49 0 0 0-.176.384q.04.393-.38.465-.39.07-.475.139-.084.07-.084.375l-.003.58-.003.58q.015.456-.378.801-.2.142-.532.48a.8.8 0 0 0-.072.191l-.018 1.649a.5.5 0 0 1-.103.194l-.109.133-.142.105a.38.38 0 0 0-.12.318q-.004.275-.142.41-.357.402-.378.801l.024.242a.37.37 0 0 1-.04.217q-.02.094-.135.167l-.166.169-.085.069-.081.1-.006.245-.01.214.025.242a1 1 0 0 1-.04.217.4.4 0 0 1-.133.197l-.199.142q-.14.135-.142.411l.006.365-.027.339-.366.311q-.136.166-.108.438.096.662-.387 1.015l-.085.07-.018.124q.03.302-.078.435l-.584.577-.616.55a.48.48 0 0 0-.15.32l-.016.154-.012.184.021.212a2 2 0 0 1-.036.248.5.5 0 0 1-.136.166l-.2.142q-.138.135-.138.441l.003.335-.028.339-.531.48-.166.169-.136.166a.65.65 0 0 0-.11.439q.007.06-.02.093l-.082.1q-.447.411-.38.77a2.5 2.5 0 0 1-.215.296l-.112.103-.139.136a.69.69 0 0 1-.586.242l-.12.012-.088.039q-.264.118-.025.369.469.411.11.477l-.243.024-.211.022q-.269.057-.275.302l-.04.217a1 1 0 0 1-.038.218l-.082.099q-.054.067-.085.07l-1.07-.015-1.069-.015a.49.49 0 0 1-.383-.175l-.408-.417-.408-.417q-.68-.695-.64-.913.038-.218-.164-.411l-.17-.166a.5.5 0 0 1-.138-.169q.081-.405-.357-.819-.338-.332.166-.779.221-.236.236-.39l.042-2.323q-.012-.426.275-.608a.5.5 0 0 0 .188-.263l.012-.184.015-.154.012-.184-.018-.181a.4.4 0 0 1 .124-.288l.196-.172a.5.5 0 0 0 .136-.166.37.37 0 0 0 .04-.217l.005-.245.006-.245a.5.5 0 0 1 .01-.214 1.2 1.2 0 0 1 .132-.197l.17-.139q.168-.138.172-.414 0-.305-.164-.411l-.07-.084-.099-.082q-.165-.135-.133-.414a.6.6 0 0 1 .206-.386.7.7 0 0 0 .2-.142q.08-.1.072-.191a.58.58 0 0 1 .139-.441l.133-.196.135-.167q.112-.102.121-.317l-.015-.151.012-.184q-.003-.336.079-.435.477-.414.41-.774.052-.096.218-.266l.112-.102.109-.133q.023-.064.045-.157l.012-.185q.009-.214.12-.317l.2-.142a.5.5 0 0 0 .136-.166l.015-.154.012-.184q.01-.215.154-.291a.8.8 0 0 0 .197-.172.5.5 0 0 0 .103-.193l.015-.154.045-.157a.37.37 0 0 1 .154-.29.67.67 0 0 0 .3-.366l-.01-.091.018-.123a.3.3 0 0 1 .07-.221l.166-.169q.223-.205.239-.36-.01-.396.278-.577.226-.175.205-.387-.026-.272.112-.407l.196-.173a.5.5 0 0 0 .136-.166l.045-.157.013-.184a.4.4 0 0 1 .123-.287l.197-.173q.114-.072.136-.166l.018-.124-.012-.12a1 1 0 0 1 .039-.218q.022-.094.136-.166l.196-.172 1.369-1.266q.027-.035.09-.009l.124.018q.309.03.408-.194.142-.41-.063-.634l-.339-.333.303-.335.634-.674q-.036-.362.239-.664l.253-.209.251-.239a.94.94 0 0 0 .245-.604q.03-.308.517-.326.395-.009.416-.408l.022-.094-.013-.121a1.2 1.2 0 0 1 .133-.196l.17-.139q.193-.203.202-.417-.024-.242.477-.719l.248-.269.22-.236q-.042-.423.294-.731l.308-.275q.2-.141.308-.275.136-.165.792-.323.06-.006.114-.073a.4.4 0 0 0 .052-.096l.039-.218.042-.187a.9.9 0 0 1 .266-.393q.172-.108.336-.308l.332-.338q.027-.034.021-.094l-.015-.151-.012-.121q-.006-.06.02-.094l.418-.408.447-.411.332-.338.085-.069.084-.07a.7.7 0 0 0 .07-.22l.01-.215q.014-.154.183-.293l.11-.133.141-.106.021-.093.018-.124.006-.245q-.054-.544.315-.825l.25-.239.251-.238q.17-.14.172-.414a.42.42 0 0 0-.19-.378q-.302-.275-.275-.613l.003-.58.003-.58q0-.306.41-.774l.052-.097.021-.093.06-3.058q.01-.215.24-.36.256-.178.265-.392l.027-1.864q-.003-.335.275-.608l.502-.477.166-.17-.14-.168-.168-.166q-.166-.137-.133-.414.003-.276.175-.384a.73.73 0 0 0 .272-.332l-.339-.333a.8.8 0 0 1-.093-.326q.009-.215.09-.314l.082-.1.085-.07q.441-.472-.007-.975l-.1-.082q-.065-.054-.069-.085.014-.153.242-.329.26-.149.057-.341l-.132-.11-.103-.11a.48.48 0 0 1-.094-.327.7.7 0 0 1 .118-.348l.142-.105.112-.103.081-.1.021-.094.046-.462a1.7 1.7 0 0 0-.046-.453l-.269-.248-.211-.284q-.175-.226-.414-.172a1.7 1.7 0 0 1 .078-.435q.064.024.152-.015.232-.115.217-.266l-.036-.057-.064-.025q-.06.007-.199.143.045-.158-.015-.152t-.109.133l-.021.094q-.324.124-.399.284-.023.064.015.151.115.233.381.145l.015.151q.006.06-.021.094l-.166.169-.166.17-.417.407q-.252.24-.45.38-.139.136-.203.418l-.04.217a.3.3 0 0 1-.105.163 2.8 2.8 0 0 1-.384.436l-.447.41q-.027.034-.02.094l-.019.124.012.12q.01.092-.021.094l-.384.436-.417.407-.166.17-.169.139a2.6 2.6 0 0 0-.3.365q.067.36-.38.77l-.081.1-.021.094a.49.49 0 0 1-.11.438l-.135.166-.166.17a.2.2 0 0 0-.046.157l-.015.154q-.009.215-.12.317-.45.38-.381.77-.124.288-.339.278-.426.012-.619.215l-.082.1-.084.07-.109.132-.112.103a.52.52 0 0 0-.087.344l-.006.245-.01.215-.02.704-.333.338-.864.819q-.223.205-.214.601l-.016.46-.015.459q-.032.278-.302.335a1.5 1.5 0 0 1-.432-.048q-.344-.088.103-.499.254-.208-.003-.335l-.19-.073a.56.56 0 0 0-.363.036q-.206.082-.224.206l-.006.245q.015.15-.039.217-.022.094-.136.166l-.166.17-.051.096a.1.1 0 0 0-.025.064q.045.148.17.166l.154.015.154.015q.215.009.32.151.073.114-.347.493l-.17.139-.172.108-.139-.169-.169-.166-.093-.021-.061.006q-.148.045-.17.139l-.017.124-.018.124q-.02.429-.35.462a.94.94 0 0 0-.617.245q-.532.48-.48.994.069.39-.215.601l-.25.239-.252.238q-.25.239.052.514.233.19.033.332l-.084.07-.091.009q-.426.012-.617.245l-.416.408-.448.41a1.02 1.02 0 0 1-.791.324l-.336.003-.368-.024a.45.45 0 0 0-.414.133l-.332.338-.333.338a.6.6 0 0 1-.414.133q-.278-.033-.386-.205-.145-.23-.363-.269l-.248-.036-.214-.009q-.397.009-.601-.215l-1.327-1.362q-.069-.085-.09-.296.006-.245.087-.345l.166-.169.17-.139q.081-.1.087-.344-.021-.212-.09-.297l-.339-.332-.003-.946.021-.093.085-.07.139-.136.111-.102a.37.37 0 0 0 .121-.318l-.012-.12.018-.124.003-.58q.024-.37.003-.58a.5.5 0 0 1 .06-.312l.082-.1.112-.102q.28-.241.257-.484a2 2 0 0 1-.027-.577l.033-.583-.012-.12.018-.124a.3.3 0 0 1 .09-.315l.142-.105.11-.133.054-.067q.054-.067.02-.094-.117-.262-.356-.208-.269.056-.41-.142-.14-.17.12-.317.257-.18.239-.36-.003-.335.109-.438l.332-.338.365-.311a.47.47 0 0 0 .173-.415q0-.916.042-1.407a.48.48 0 0 0-.094-.327l-.102-.112-.136-.138q-.167-.136-.164-.411a.6.6 0 0 1 .206-.387l.166-.17.136-.165a.67.67 0 0 1 .211-.632l.281-.242a.9.9 0 0 0 .221-.235l.085-.07.081-.1a.5.5 0 0 0 .103-.193l-.01-.7.022-.705q.02-.399-.245-.616-.23-.16-.214-.62l.015-.154-.019-.18a.48.48 0 0 1 .152-.321l.335-.308-.142-.2-.136-.139q-.196-.132-.163-.41.004-.276.172-.415l.25-.238.251-.239.702-.01q.301-.03.371.055t.142.505q.07.39.435.384.49.011.496.377l-.01.215-.014 1.07-.015 1.069q.009.396-.278.577a.54.54 0 0 0-.206.387l-.042 1.408q0 .304-.278.577l-.166.169-.166.17-.112.102-.142.106a.7.7 0 0 0-.118.347l-.012 1.405-.012 1.405a.46.46 0 0 1-.118.347l-.112.103-.111.103-.082.1-.051.096-.021.094.012.12-.012.49-.015.46q.02.211-.203.416l-.17.14a.5.5 0 0 0-.102.193q.066.36-.41.773a.2.2 0 0 0-.073.19l-.048 2.569-.049.127-.051.096-.082.1-.142.106q-.141.105-.063.28.036.058.139.17l.17.166.041.118.01.091-.028.948-.02.704.619.701q.099.082.314.091.245.006.326-.094.444-.441.786-.384.033.027.09-.009l.115-.072q.393-.345.789-.354l.244.006q.49.012.493-.568l.015-.459q.021-.399.48-.384l.185.012q.124.019.28.064-.024.063.016.151.084.235.266.217l.03-.003.024-.063q.021-.094-.112-.203.154.016.118-.042-.006-.06-.133-.109l-.063-.024a1.13 1.13 0 0 1-.124-.628l.054-.067.051-.096q.105-.164.36-.067-.024.064.015.151.084.236.266.218l.03-.003.024-.064q.021-.094-.111-.202.153.015.117-.042-.006-.06-.133-.11a.3.3 0 0 0-.124-.017q-.105-.143-.05-.209.127-.257.34-.248.279.034.42-.072.234-.115.176-.384-.052-.209.172-.414l.112-.102.142-.106q.108-.133.057-.342l-.012-.12a.4.4 0 0 1 .051-.097l1.14-1.121.214.009.242-.024q.208-.052.275-.302l.012-.185.045-.157a.37.37 0 0 1 .187-.263.6.6 0 0 0 .248-.574q.008-.215.236-.39.229-.145.278-.577.024-.368.453-.35l.184.012q.124.018.25.066.007.06.046.149.084.236.266.217l.027-.033.027-.034q.021-.093-.111-.202.154.015.117-.042-.006-.06-.133-.109a.3.3 0 0 0-.123-.018q-.11-.172-.082-.206l.417-.407.447-.411.051-.097.052-.097.018-1.65q.018-.428.45-.38.308.03.414-.133a.64.64 0 0 0 .109-.438l-.012-.121.018-.124a.78.78 0 0 1 .244-.604l.251-.239.25-.238a.48.48 0 0 0 .185-.294l.046-.157-.016-.15q.003-.581.315-.826a.48.48 0 0 0 .184-.293l-.015-.15.012-.185.25-.239.218-.266q.027-.033.021-.093l-.012-.121.018-.124q-.01-.09.019-.124l.416-.408.417-.408.668-.646.085-.07.087-.04.339.333.066.055a.2.2 0 0 0 .094.02q.232-.114.175-.383-.026-.272.172-.414l.166-.17.166-.168-.169-.166-.169-.167a.4.4 0 0 1-.151-.29l.012-.184.045-.157q.085-.375.499.103.206.224.338.027l.052-.097.02-.094.022-.704q0-.61.417-1.018.338-.278.828-.266l.462.046 1.094 1.172-.166.17q-.309.274-.103.498l.646.667a.37.37 0 0 1 .082.206l-.06 3.057q.01.09-.073.19l-.166.17-.17.139q.015.15.152.29l.103.112.133.108.139.17.169.166q.166.135.163.41-.004.276-.172.415-.342.248-.342.553l.013 1.646-.052 1.623-.036 1.163-.834.816q-.14.135-.109.438.015.15-.238.36-.25.238.02.516.204.194.191.378l-.006 1.16a3 3 0 0 1-.214.296l-.254.208-.027.95.003.335-.024.368a.38.38 0 0 0 .063.33l.106.141.133.11a.46.46 0 0 1 .166.44l-.033-.027q-.003-.03-.094-.021l-.09.009q-.233.115-.218.266.003.03.04.087.066.055.096.052.187.042.275-.302.003.03.03-.003.236-.085.662-.097l.365-.311.502-.478q.22-.236.377-.8.068-.252.312-.245.426-.012.62-.215.382-.435.667-.646a.68.68 0 0 0 .266-.393l.042-.187.04-.218q-.007-.06.05-.097.055-.066.115-.072l.212-.021.242-.024.673-.587.052-.096.048-.127q.139-.441.224-.51.084-.07.483-.05.55.008.656-.156l.039-.218.04-.217q.011-.184.238-.36.26-.148.205-.387a.49.49 0 0 1 .142-.41l.668-.647.166-.17.17-.138a.7.7 0 0 1 .45-.076q.406-.194.81-.752a.75.75 0 0 1 .24-.635l.251-.238.254-.209.384-.435.45-.38q.248-.27 1.124-.662.266-.089.175-.384l.245.006.215.009q.278.033.383-.13.109-.132-.127-.353-.269-.249.015-.46.173-.108.206-.386l.039-.218a.7.7 0 0 1 .073-.19l.084-.07q.055-.066.088-.039l.097.051.069.085a.7.7 0 0 1 .051.208l-.006.245q.018.182.245.311.172-.108.239-.36.078-.435.133-.5.054-.067.362-.037l.245.006.16.076zm-2.939 1.728-.124-.018q-.227-.13-.212-.284l.055-.067q.054-.066.114-.072.152-.015.266.217l.012.121q.006.06-.021.094zm-46.227 44.271a.3.3 0 0 1 .075.145l.127.659.097.662q.057.269-.112.408a.27.27 0 0 0-.133.196l.012.121.013.121.012.121.042.117q.015.152-.07.221l-.111.103a.34.34 0 0 0-.11.133l.016.151.015.151.048.178a.34.34 0 0 1-.015.154q.006.06-.078.13l-.112.103-.054.066-.028.033.025.242q.014.151-.1.224l-.112.102a.5.5 0 0 0-.078.13l.009.091-.019.124a.2.2 0 0 1-.072.19.47.47 0 0 0-.172.414l.018.181.045.148q.105.448-.205.692-.054.067-.04.218l.013.121a.4.4 0 0 1-.052.096l-.111.103-.11.133-.023.064.006.06.018.181.015.151q.087.267-.142.411-.117.042-.127.257l.015.151q-.021.094-.078.13a.5.5 0 0 0-.221.236l.015.151.015.151.018.181q.04.088.016.151a.34.34 0 0 1-.11.133l-.111.103-.224.205a.46.46 0 0 0-.145.381l.034.332q.03.303-.236.695a.4.4 0 0 0-.04.218l.025.242q.021.211-.03.308-.272.332-.209.661.021.212-.09.315l-.224.205-.305.305-.006.245.024.242q.045.148-.097.253a.2.2 0 0 1-.045.158l-.142.105-.018.124q.039.088.015.151l-.1-.081-.015.154.049.178.02.212a.28.28 0 0 1 .019.181.35.35 0 0 1-.109.133l-.109.133-.087.039-.021.094-.018.124.045.148a.28.28 0 0 1-.13.226l-.142.106q-.051.096-.076.16l.013.121.015.151a.28.28 0 0 1-.13.227q-.197.172-.166.474l.018.181.02.212q.143.504-.226.785-.054.067-.036.248l-.015.154q.006.06-.051.097l-.11.133-.108.133-.054.066.009.091.02.211.019.182q.09.296-.2.447-.114.072-.087.344l-.015.154a.4.4 0 0 1-.076.16q-.202.112-.25.239a.4.4 0 0 0-.012.184l.051.209.018.181a.4.4 0 0 1-.012.184.34.34 0 0 1-.109.133l-.139.136-.25.239a.55.55 0 0 0-.17.444l.04.393q.033.332-.257.789-.081.1-.064.281l.013.12.015.151q.024.242-.028.339-.299.365-.256.788.024.242-.088.345l-.25.239-.39.374.027.272.027.272q.017.182-.063.281l-.115.073-.085.069q-.14.136-.088.344.04.088-.015.155-.314.519-.299.975a.37.37 0 0 1-.184.294q-.176.079-.157.259l-.012.185.045.758-.015.154.012.121a.33.33 0 0 1-.066.251l-.14.136-.111.102-.048.127.012.121q-.012.185-.097.254l-.142.106a.34.34 0 0 0-.109.133.4.4 0 0 0-.012.184l.018.181-.012.185a.4.4 0 0 1-.012.184.5.5 0 0 1-.078.13l-.142.106-.085.069-.024.063-.012.185-.012.184.02.212a.34.34 0 0 1-.014.154.35.35 0 0 1-.109.133l-.142.105-.054.067-.055.066.015.762q-.003.274-.308.58l-.054.066-.021.094.006.366q.009.395-.332.948l-.022.094-.024.063-.051 1.318q.009.09-.076.16l-.142.106a.34.34 0 0 0-.108.132q-.045.157-.079.436l.024.241-.009.215q-.006.245-.23.45l-.087.039q-.057.037-.054.067l-.058.646-.027.644q0 .304-.263.423a.18.18 0 0 0-.108.133l-.043.187q-.006.245-.124.287-.293.121-.275.607l-.012.185-.012.184q-.03.308-.338.583l-.055.067-.024.063-.036.553q-.03.308-.38.77l-.025.064-.024.063-.075.771a.5.5 0 0 1-.094.284l.006.06q.015 1.067-.097 1.169-.323.429-.314.825l.006.366.036.362a.57.57 0 0 1-.084.375l-.082.1-.139.136-.084.069q-.054.067-.052.097l-.012.184.019.182q-.01.214-.155.29-.141.105-.269.362-.027.034-.018.124l.012.121q-.014.459-.383.435a.46.46 0 0 0-.414.133l-.136.166-.166.169-.583-.033-.55-.006a.6.6 0 0 1-.414-.172 132 132 0 0 0-1.402-1.508.73.73 0 0 1-.188-.347l.016-.154-.018-.182.003-.274a.8.8 0 0 0-.055-.239.8.8 0 0 0-.142-.2l-.2-.163a.68.68 0 0 1-.169-.471l.006-.245-.024-.241q-.042-.423-.447-.505-.31-.06-.377-.115-.1-.081-.173-.501a.73.73 0 0 0-.257-.432q-.265-.218-.28-.674a10 10 0 0 0-.046-.758.78.78 0 0 1 .211-.632q.305-.305.179-.659l-.136-.139-.043-.117q-.24-.282-.284-.399l.2-.142-.051-.209-.049-.178a1.2 1.2 0 0 0-.17-.166l-.229-.16-.102-.112-.07-.085-.393-2.096.266-.393q.105-.164-.16-.381-.33-.241-.115-.538.19-.233.14-.441l-.415-2.613-.012-.121-.042-.118a.85.85 0 0 0-.245-.311l-.136-.139-.166-.136a.5.5 0 0 1 .102-.193l.136-.167q.191-.233.106-.468l-.07-.39-.039-.392-.108-.783-.055-.239.003-.275a.5.5 0 0 0-.16-.38l-.136-.139-.163-.106a.8.8 0 0 1-.2-.468q-.074-.756.088-.955.193-.203.184-.293.024-.063-.178-.257-.27-.248-.317-.426-.103-.417.211-.631.25-.239-.118-.568-.296-.214-.096-.357l.166-.169.136-.166-.378-.42-.1-.082q-.069-.084-.072-.115a51 51 0 0 1-.151-1.815q.01-.214-.23-.466-.339-.332-.115-.537.197-.173.188-.263.024-.064-.212-.284-.27-.248-.284-.704l-.018-.182-.018-.181a.57.57 0 0 1 .118-.347q.36-.372.347-.798 0-.61-.369-.94l-.275-.308-.308-.335a.68.68 0 0 1-.169-.471.47.47 0 0 1 .206-.387q.31-.244.28-.852.015-.46-.253-.707-.206-.224-.215-.314.024-.064.22-.236.484-.354.1-.834-.387-.51-.41-.752.008-.215.38-.465.23-.145-.006-.366a2 2 0 0 1-.275-.308.54.54 0 0 1-.07-.39q.043-.188-.199-.468-.345-.393-.054-.544.317-.184.308-.58l.006-.245-.024-.242a.85.85 0 0 0-.233-.495q-.236-.22-.23-.465l.058-1.257a.5.5 0 0 0-.043-.118l-.072-.115-.35-.453.138-.136a2 2 0 0 1 .203-.112q.295-.09-.006-.365a1.4 1.4 0 0 1-.145-.23l-.175-.227.066-.861.093-.894q.015-.155-.126-.354l-.11-.172-.138-.169a.54.54 0 0 1-.085-.236l-.024-.241a.73.73 0 0 0-.172-.502q-.336-.302-.224-.71l.006-.245q-.006-.365.372-.556.555-.239.226-.785l-.139-.169-.108-.172q-.142-.2-.1-.387.15-.931.19-1.453a.38.38 0 0 1 .154-.291l.142-.105.148-.046.233-.114.205-.082q.206-.081.53.1.353.178.307.64-.04.217.142.505.312.365.254.707l-.075.465q-.052.402.302 1.19l.042.118.012.121q-.063.586-.117.958a.78.78 0 0 0 .22.68q.24.25.2.468l-.167 1.695q.006.06.043.118l.072.115.14.169.108.172a.5.5 0 0 1 .127.353l-.055.372-.024.369-.057.951-.03.614-.06.616q-.037.247.172.502l.172.196.142.199-.073 1.717.03-.004-.038 1.744q.003.03.072.115l.103.111.105.142.11.173q.138.168.126.353-.036 2.384.079 5.973a.7.7 0 0 0 .16.381l.136.139.136.139.072.115.043.118.012.12.012.121q.224 4.373.765 8.865.033.332.483.867l.103.112.042.118.239 1.776q.018.181-.172.414-.251.238.084.541.263.188.285.399.367 2.465.976 5.791l.027-.033.021.212.018.181.036.057q-.023.064.016.151l.039.088q.003.03 0 0l.006.06.012.121-.057.342-.022.093.049.789q.003.03.07.085l.072.114.371.36.034.637.003.641q-.008.214.226.435l.172.196a.3.3 0 0 1 .112.203l.055.238-.006.245q.006.366.392.876l.073.115a.2.2 0 0 1 .04.088.84.84 0 0 0 .138.474l.142.2.173.196q.066.054.081.205l.024.242q.024.242.251.372a.41.41 0 0 0 .203-.417q-.058-.27.108-.438l.17-.139a1.2 1.2 0 0 0 .132-.197.7.7 0 0 0 .01-.214l-.028-.272q-.022-.518.284-.822.224-.205.14-.441-.056-.239.171-.414a.35.35 0 0 0 .11-.133l.132-.196q-.033-.027.127-.257l.136-.166q.054-.067.048-.127l-.105-.142q-.142-.2-.028-.272.085-.07.333-.033.278.033.305-.306l.036-.553q.021-.398.275-.607l.254-.208q.226-.175-.022-.517l-.039-.088-.009-.09.018-.734q.03-.309.2-.448l.196-.172.196-.172q.173-.109.188-.263l.027-.949.03-.918q0-.304.233-.42.145-.075.15-.32l.016-.154q.021-.094.078-.13a1.2 1.2 0 0 0 .197-.173.46.46 0 0 0 .096-.253l-.012-1.037.021-1.009.025-.063.087-.039q.26-.149.212-.632-.003-.336.166-.474.226-.175.02-.399-.204-.224-.005-.366.17-.138.184-.293l-.006-.365-.04-.393q-.026-.272.233-.42.2-.142.003-.275l-.136-.139-.105-.142.25-.239.112-.102.14-.136a.5.5 0 0 0 .187-.263 1 1 0 0 0 .003-.275l-.028-.272q-.003-.335.369-.281.372.055.372-.251l-.019-.181-.006-.366-.027-.272a.33.33 0 0 1 .067-.25l.108-.133.142-.106.018-.124-.012-.121q.012-.184.097-.254l.082-.099.084-.07a.29.29 0 0 0 .097-.254l-.058-.574-.054-.544a.45.45 0 0 1 .063-.281q.055-.066.167-.169.114-.072.1-.223l-.016-.151.021-.094a.8.8 0 0 1 .164-.199l.196-.173q.305-.305.332-.338.046-.157-.063-.635-.012-.12.184-.293.197-.171-.07-.389-.199-.164-.087-.266.081-.1.33-.064.335-.003.301-.335l-.018-.181-.02-.212q-.053-.209.09-.314l.142-.106a.5.5 0 0 0 .078-.13.4.4 0 0 0 .012-.184l-.051-.209-.018-.181a.4.4 0 0 1 .012-.184.34.34 0 0 1 .109-.133l.142-.106a.4.4 0 0 0 .075-.16l-.018-.181q.009-.215.124-.287.26-.148.166-.475a.2.2 0 0 1 .045-.157l.11-.133.108-.133q.109-.132.057-.341l-.006-.06.052-.097q.268-.363.244-.604l-.03-.303-.057-.268q-.053-.209.196-.478l.468-.504-.012-.121-.015-.151q-.015-.152.1-.224.287-.181.2-.447l-.061-.299-.027-.272q-.03-.303.211-.632.085-.07.066-.25l-.015-.151.021-.094.082-.1.112-.103a.45.45 0 0 0 .1-.223l-.01-.091-.012-.121a.2.2 0 0 1 .046-.157l.136-.166-.003-.03a.4.4 0 0 1 .039-.218.7.7 0 0 1 .17-.139q.084-.069.069-.22l-.013-.121.022-.094a.5.5 0 0 1 .136-.166l.166-.169q.28-.242.278-.272.048-.127-.025-.547-.041-.118.13-.226.167-.17-.036-.363-.196-.133-.084-.236.054-.066.268-.057.306 0 .278-.272l-.018-.181-.015-.151q-.047-.179.064-.281l.111-.103q.088-.04.082-.1a.34.34 0 0 0 .015-.154l-.018-.181-.048-.178q-.01-.091.018-.124a.5.5 0 0 1 .078-.13l.112-.103q.057-.036.079-.13l.015-.154q-.021-.212.096-.254.23-.144.142-.411-.01-.09.049-.127l.081-.099.109-.133a.33.33 0 0 0 .033-.278l-.009-.091.055-.066q.244-.3.193-.508l-.024-.242-.028-.272q-.048-.177.146-.38l.413-.438-.012-.121-.012-.121q-.012-.121.103-.193.226-.175.172-.414l-.054-.239-.024-.242q-.055-.238.19-.538.054-.066.04-.217l-.013-.121.021-.094.052-.096.084-.07q.112-.103.103-.193l-.018-.181q-.009-.091.048-.127l.19-.233.224-.205q.114-.073.103-.194l-.012-.121-.012-.121 1.045-1.142.07.085zm2.687 26.555.13.078 1.003.876q.1.082.12.293a1.1 1.1 0 0 1-.06.312q-.35.462-.32.764l.021.212.016.456.045.453a.6.6 0 0 1-.112.408l-.136.166-.136.166.07 1 .07 1a.5.5 0 0 1-.091.315l-.079.13-.112.102-.081.1q-.055.066-.052.097.04.697.079 1.09a.49.49 0 0 1-.142.411 1 1 0 0 0-.19.233.64.64 0 0 0-.058.341l.033.333.034.332q.07.39-.29.761-.166.17-.438.502-.082.1-.073.19l.106 1.363q.027.577-.338 1.193l-.01.215-.008.214a.75.75 0 0 1-.24.36q-.259.148-.03.308l.197.133a.5.5 0 0 1 .139.169.7.7 0 0 1 .051.209l-.009.214.024.242a.7.7 0 0 1-.009.214.3.3 0 0 1-.105.164l-.166.169q-.14.135-.112.408.006.06.048.178l.07.085.102.111q.532.435.091.907l-.027.033q-.027.339-.16.535l.06.909q.024.242-.211.326l-.212.022-.214-.009-.094-.022q-.172.11-.003.275l.196.133q.073.115.112.203.036.057.021.211l-.039.218.024.241q.012.121-.042.188-.022.094-.136.166l-.166.169q-.172.11-.145.381-.01.215.19.377.479.502 0 .916-.223.206-.238.36l-.007.549-.036.553q-.006.245-.244.299l-.212.022-.217-.04q-.03.003-.097-.051l-.073-.115-.444-.474-.477-.502.027-.338v-.305a.46.46 0 0 0-.133-.414q-.331-.272-.3-.55l.028-.338-.003-.336q.03-.308.384-.74l.054-.067.051-.096.09-3.366q.004-.275.161-.535l-.021-.211q-.033-.333.287-.792l.051-.097.021-.093-.211-3.336q-.03-.301.299-.976l.051-.096-.012-.121-.024-.547-.024-.547a.2.2 0 0 1 .072-.19q.384-.435.287-.792a.7.7 0 0 1 .106-.163l.136-.166q.193-.202.175-.384l-.045-.453-.046-.453a.64.64 0 0 1 .058-.342l.112-.102.111-.103a.4.4 0 0 0 .091-.314l.012-.185.018-.124q.371-.86.339-1.193l-.049-.178q.148-.351.142-.716l.003-.275q.015-.155.064-.281l.102-.194.103-.193q.072-.19.106-.468l-.024-.242.006-.245q.033-.888.341-1.468.254-.514.843-.725m2.154-6.532.136.139q.193.102.19.377.024.242-.115.378l-.22.236-.218.265q-.084.07-.299.061t-.314-.091l-.166-.136a.5.5 0 0 0-.166-.136.5.5 0 0 0-.215-.009l-.12.012-.094-.021q-.248-.036-.272-.278l-.046-.453-.042-.423.006-.245-.021-.211q-.094-.326.29-.762.084-.069.072-.19l.01-.214q-.058-.575.02-.704.082-.1.599-.121.453-.045.52.009.163.105.196.743.003.336.266.523l.169.166q.069.084.06.299t-.093.284l-.272.332zm16.603 21.988.088-.039q.232-.115.184-.293l-.003-.03-.06.006q-.06.006-.14.136l.07-.221q-.185-.012-.25.239-.05.127.017.181l-.12.012-.091.009-.33.369a2.7 2.7 0 0 0-.293.426l.06.604q-.174.078-.307-.03l-.133-.109-.103-.112q-.169-.166-.33.064l-.184.293-.22.235.036.668q.039.393-.287.487l-.09.009-.118.042q-.327.094-.287.486.036.363-.32.46-.357.096-.411.163-.085.069-.085.375.009.395-.353.432l-.454.045-.12.012q-.06.006-.088.039l-1.42 1.668.139.169.302.275-.136.166-.435.532-.408.499-.217.266-.22.235a.69.69 0 0 0-.122.623 1.1 1.1 0 0 1-.184.293l-.19.232q-.436.532-.937.094-.203-.194-.311-.06-.166.168-.082.405.048.177-.145.38a.75.75 0 0 0-.214.602l.066.664q.037.363-.154.595l-.136.167-.193.202-.16.23a.58.58 0 0 0-.07.525l-.136.167-.102.193a.3.3 0 0 0-.124.287l-.015.154.015.151a.5.5 0 0 1-.103.193l-.166.17-.082.099-.024.064q-.006.245.046.453l.069.085.097.051q.38.145.601-.091l.051-.096.052-.097-.058-.879.571-.698.151-.015.151-.015a.38.38 0 0 0 .287-.182l.272-.332.27-.363 1.715-2.063q.028-.033.09-.009l.122-.012.12-.013.091-.009.218-.266.22-.235a.78.78 0 0 0 .151-.626q.067-.25.245-.299l.33-.063.335-.003q.39-.07.35-.463-.036-.362.339-1.193l-.052-.208.006-.245.052-.097.084-.069q.142-.106.417-.103.43-.286.68-.831-.088-.265.1-.529l.163-.199.163-.2.081-.099.055-.067a.47.47 0 0 0 .154-.29l.015-.154-.018-.181-.015-.151-.016-.151a.4.4 0 0 1 .091-.314l.136-.167a.4.4 0 0 0 .133-.196.5.5 0 0 0 .01-.215l-.01-.09-.012-.121q.04-.218.275-.302.444-.136.495-.233.082-.099.012-.489l-.066-.665.124.018q.06-.006.087-.039l.33-.369a1.5 1.5 0 0 0 .293-.426 2 2 0 0 1 .033-.583m11.26-14.34a.76.76 0 0 1 .423-.042q.214.01.275.308.141.505-.43.592-.664.067-.86.544l-.188.263-.184.293q-.399.589-.58.608a.49.49 0 0 0-.374.22l-.133.196-.136.167-.091.009-.12.012q-.358.096-.354.432-.01.52-.154.595-.499.202-.686.465l-.236.39q-.218.266-.48.079-.233-.19-.342-.058l.003.031.022.211.018.181q.084.236-.052.402-.108.133-.242.024l-.117.043-.121.012q-.06.006-.088.039l-.139.136-.133.196-1.383 2.031q-.533.785-.713.804a.55.55 0 0 0-.375.22l-.103.193-.139.136-.027.034-.19.232q-.22.236.106.447.232.19.063.33l-.136.166-.136.166.178 1.783q.06.604-.314 1.435a.69.69 0 0 1-.12.622l-.221.236-.218.266-.054.066-.082.1-.045.157.015.151a.8.8 0 0 1-.06.311l-.109.133-.081.1q-.136.167-.121.317l.012.121.009.091a.3.3 0 0 1-.103.193l-.84 1.061-.136.166a.7.7 0 0 0-.106.163l.019.181-.015.154a.4.4 0 0 1-.124.287.46.46 0 0 0-.166.17q-.082.1-.073.19.097.357-.29.761l-.218.266-.187.263a.2.2 0 0 0-.045.157l-.015.154q.021.212-.06.311l-.273.333-.435.532.034.332.033.332a.42.42 0 0 1-.112.408l-.112.103-.105.163a2 2 0 0 1-.221.236l-.148.045-.148.045q-.212.022-.293.121l-.187.263-.218.266-.218.266-.217.266a.64.64 0 0 1-.311.245l-.206.081-.208.051q-.175.08-.145.381.046.454-.284.517-.42.072-.52.296a.53.53 0 0 1-.256.178l-.149.046-.178.048a.37.37 0 0 0-.245.299l-.009.215-.009.214-.407.499-.436.531-1.55 1.895q-.598.73-.782.719-.215-.01-.375.22l-.135.167a.5.5 0 0 1-.17.139l-.09.009-.121.012q-.15.015-.209.051l-.111.103-.11.133q-.135.166-.223.205a.8.8 0 0 1-.239.055l-.211.021-.272.027q-.564.148-.943-.272l-.335-.302-.362-.269a.45.45 0 0 1-.16-.381l-.034-.332-.033-.332q-.034-.333.287-.792a.8.8 0 0 0 .06-.311l-.015-.151.045-.157.136-.166.136-.167a.37.37 0 0 0 .04-.217l-.088-.876a.75.75 0 0 1 .215-.602q.567-.728.55-.909-.052-.209.111-.408l.136-.166a.7.7 0 0 0 .106-.163l.015-.154-.015-.151q-.021-.212.12-.318.17-.138.273-.332a.48.48 0 0 1 .283-.211l.152-.016.148-.045q.09-.009.169-.139l.136-.166.136-.166.136-.166a.53.53 0 0 0 .018-.429q.2-.448.68-.831a.7.7 0 0 0 .498-.203l.163-.199.19-.233q.17-.138.115-.378l-.054-.238-.021-.212-.046-.453q-.039-.393.35-.462.303-.03.385-.13.217-.266.525-1.151l.052-.097.084-.069q.535-.146.722-.408.11-.133.381-.16.363-.037.353-.433.015-.459.254-.513.45-.076.583-.272.29-.456.541-.695a.6.6 0 0 0 .206-.387l.042-.187.009-.215.051-.096.085-.07.184-.293q.14-.136.25-.239a.44.44 0 0 0 .13-.226l.019-.124.015-.154q-.003-.336.233-.42.529-.206.688-.435l.707-.864.221-.236.218-.266a.3.3 0 0 1 .256-.178l.148-.046.148-.045q.206-.081.212-.326l.009-.215q.018-.123.04-.217l.217-.266.22-.236.052-.096.084-.07a.47.47 0 0 0 .154-.29l-.018-.181-.015-.151q-.018-.487-.347-.728a.55.55 0 0 1-.221-.375q-.012-.426-.378-.42l-.211.021a.4.4 0 0 1-.19-.072l-.363-.269-.336-.302q-.697-.571-.906-.52t-.41-.142l-.167-.136a.5.5 0 0 0-.193-.103.69.69 0 0 1-.623-.121l-.235-.22-.266-.218a.8.8 0 0 0-.598-.184q-.181.018-.357-.208a.46.46 0 0 0-.38-.145l-.665.066-.097-.051-.097-.052-.166-.136a.5.5 0 0 0-.166-.135l-.154-.016-.181.019q-.181.017-.285-.094a1.6 1.6 0 0 0-.362-.269q-.033-.027-.094-.021l-.12.012-.118.042q-.06.006-.094-.021l-.432-.353-.432-.354-.097-.051-.094-.021a.6.6 0 0 1-.432-.049l-.193-.102-.166-.136a.4.4 0 0 0-.19-.073l-.212.021q-.271.027-.357-.208-.174-.532-.408-.722l-.864-.707q-.232-.19-.269-.553l-.066-.665q-.03-.301-.33-.547a.46.46 0 0 1-.217-.344.45.45 0 0 1 .082-.405l.435-.532.438-.501q-.003-.03.087-.039l.091-.01q.508-.111.483-.353-.063-.33.287-.792.082-.1.064-.281l-.018-.181.045-.157a.32.32 0 0 1 .317-.184l.027-.034.408-.498.378-.496q-.015-.15.12-.317.435-.532.614-.58.384-.13.438-.196.085-.07.058-.342-.01-.396.38-.465.006-.245.311-.245a.64.64 0 0 0 .408-.193l.136-.166.136-.167.136-.166.136-.166.082-.1.084-.069.09-.009.122-.012.12-.012q.06-.007.088-.04l.354-.432.353-.432q.112-.102.414-.133.155.015.341-.248t.457-.015a.57.57 0 0 0 .383.176q.273-.028.378-.191l.136-.166.082-.1q.054-.066.084-.069l1.088-.109 1.118-.112.084-.069.052-.097.305-.305.166.136.698.571.094.021.096.051q.852.282 1.067.595l.012.426-1.248 1.56-.299.365.033.332.03.303q.122.598-.525.54a1 1 0 0 1-.187-.042l-.167-.136-.169-.166a1.03 1.03 0 0 1-.377-.725q-.007-.366.287-.792l.02-.093-.005-.061-.07-.084q-.066-.055-.097-.052-.18.018-.97-.238l-.283-.094-.281-.063q-.285-.094-.405-.082a.33.33 0 0 0-.293.121l-.112.103-.079.129a.42.42 0 0 1-.29.152l-.15.015-.146.075-.112.103-.108.133a.63.63 0 0 1-.254.208.7.7 0 0 0-.499.203l-.163.199-.16.23-.71.834-.704.894a.8.8 0 0 1-.172.109l-.209.051q-.269.058-.374.221a.8.8 0 0 1-.187.263l-.218.266-.571.698-.178.048q-.218.266-.432.867l-.2.447q-.096.254-.263.423l-.135.166a1.4 1.4 0 0 0-.103.194q-.049.126-.118.652-.066.557-.057.647l.033.332.033.333q-.008.215.19.377.197.134.668.269l.345.088q.19.072.323.181.23.16.269.553.018.181.302.275.356-.097.758.26a.33.33 0 0 0 .251.066l.154.015.151-.015q.423-.042.53.1a1 1 0 0 1 .08.205l.082.206q.085.235.236.22l.094.021.093.022q.493.347 1.003.265l.121-.012.09-.009a.5.5 0 0 1 .194.103l.197.133.223.1q.287.124.42.232.105.142.317.121l.151-.015.155.015q.096.051.26.157l.265.218q.06-.006.145.229l.079.175q.04.088.1.082.18-.018.592.124.471.135.825.314.51.223.903.489a4.6 4.6 0 0 1 1.64 1.759q.037.057.13.078l.182-.018.07.085.08-.1q.025-.063.161-.23l.245-.299.408-.498a.38.38 0 0 1 .253-.209l.148-.045.151-.015.372-.556.187-.263a1.4 1.4 0 0 1 .218-.266q.336-.003.58-.302l.154-.29q.105-.163.187-.263a.9.9 0 0 0 .188-.263l.157-.26q.241-.329.577-.332l.405-.529q.035-.248.245-.299l.13-.226.329-.064.329-.063a.4.4 0 0 0 .29-.151l.079-.13.108-.133a.42.42 0 0 1 .378-.191l.088-.039.087-.039.638-.949q.399-.59.58-.607a.55.55 0 0 0 .374-.221l.103-.193a.6.6 0 0 1 .14-.136l.144-.076.151-.015q.21-.052.254-.208.13-.226.272-.333m1.124-.356q-.105-.143.087-.345l.07.085.097.051q.102.113-.091.315zm.77-.23q.128-.257.254-.208l.097.051.096.051q-.123.287-.253.209l-.097-.052zm-.67-3.656.13.079 1.002.876q.1.081.121.293a1 1 0 0 1-.06.311q-.35.462-.32.765l.02.211.016.456.045.454a.6.6 0 0 1-.112.408l-.135.166-.136.166.07 1 .069 1a.5.5 0 0 1-.091.314l-.079.13-.111.103-.082.1q-.054.066-.051.096.039.699.078 1.091a.49.49 0 0 1-.142.411 1 1 0 0 0-.19.233.64.64 0 0 0-.057.341l.033.332.033.333q.07.389-.29.761-.166.17-.438.502-.081.099-.073.19l.106 1.363q.028.576-.338 1.193l-.01.214-.008.215a.75.75 0 0 1-.239.36q-.26.147-.03.308l.196.133a.5.5 0 0 1 .14.169.7.7 0 0 1 .05.208l-.008.215.024.242a.7.7 0 0 1-.01.214.3.3 0 0 1-.105.163l-.166.169q-.14.136-.112.408.006.061.049.179l.069.084.103.112q.532.435.09.906l-.027.034q-.027.337-.16.534l.06.91q.025.242-.21.326l-.212.021-.215-.009-.094-.021q-.171.109-.003.275l.197.133q.072.115.112.202.035.058.02.212l-.038.217.024.242q.012.121-.043.187-.02.094-.136.167l-.166.169q-.171.108-.145.38-.008.215.19.378.478.501 0 .916-.222.205-.238.359l-.006.55-.036.553q-.006.245-.245.299l-.212.021-.217-.039q-.03.003-.097-.051l-.072-.115-.444-.475-.478-.501.027-.338v-.306a.46.46 0 0 0-.132-.414q-.333-.272-.3-.549l.028-.339-.004-.335q.03-.308.384-.74l.055-.067.05-.097.091-3.365q.004-.276.16-.535l-.02-.212q-.034-.332.286-.791l.052-.097.02-.094-.21-3.335q-.031-.303.298-.976l.052-.097-.013-.121-.024-.546-.024-.547a.2.2 0 0 1 .073-.191q.383-.435.287-.791a.6.6 0 0 1 .105-.163l.136-.167q.194-.202.176-.383l-.046-.453-.045-.454a.64.64 0 0 1 .057-.341l.112-.103.112-.103a.4.4 0 0 0 .09-.314l.013-.184.018-.124q.37-.861.338-1.193l-.048-.179q.148-.35.142-.716l.003-.275q.014-.153.063-.281l.103-.193.103-.193q.072-.19.105-.469l-.024-.241.006-.245q.033-.889.341-1.468.254-.514.843-.726Zm2.153-6.532.136.139q.195.103.19.378.025.242-.114.377l-.22.236-.218.266q-.085.069-.3.06-.213-.009-.314-.09l-.166-.136a.5.5 0 0 0-.166-.136.5.5 0 0 0-.214-.009l-.121.012-.094-.021q-.248-.036-.272-.278l-.045-.453-.043-.423.006-.245-.02-.212q-.094-.326.29-.761a.2.2 0 0 0 .072-.19l.009-.215q-.057-.573.021-.704.082-.1.598-.121.453-.045.52.009.163.106.196.744a.61.61 0 0 0 .266.522l.17.166q.069.085.06.3t-.094.284l-.272.332.14.169Zm27.658 13.528a.3.3 0 0 0-.151-.29l-.097-.051q-.017.124.115.233a.35.35 0 0 0 .133.108m19.502-24.074q.268-.058.381.145.186.347 0 .61l-.085.07-.085.069a3.4 3.4 0 0 1-.67.006q-.215-.01-.378.19a.66.66 0 0 1-.55.3l-.882.027-.882.027q-.184-.012-.378.19-.218.267-.453.046-.235-.22-.484.048l-.136.166-.196-.133a.35.35 0 0 1-.133-.108q-.179-.258-.335.003-.024.063-.139.136l-.169.139-.306-.306q-.168-.165-.326.094-.127.257-.341.248-.306 0-.417.103l-.136.166-.169.139q-.055.066-.176.078l-2.71.058a.76.76 0 0 0-.519.296q-.194.202-.33.063l-.169-.166-.166-.136-.139.136-.166.169q-.11.133-.381.161l-2.465.063-2.436.061q-.214-.01-.377.19-.248.269-.765.29-.426.012-.598-.184-.239-.25-.489-.012-.19.232-.463-.045a.57.57 0 0 0-.383-.176.45.45 0 0 0-.381.16l-.136.167a.5.5 0 0 1-.169.139.7.7 0 0 1-.209.051l-.244-.006-.215-.009-.211.021-.088.039-.081.1-.309.275-.335-.302q-.103-.112-.284-.094l-.184-.012-.151.015q-.43-.018-.587.242-.187.263-.555.239l-.457.015-.426.012-.093-.021-.097-.052q-.586-.368-.979-.329l-.459-.015q-.303.03-.55.299-.163.2-.348.188l-1.583.036-1.553.033q-.242.024-.546.329l-.112.103-.384.13-.36.067-.362.036q-.453.045-.686.16l-.323.124-.293.121a2 2 0 0 1-.659.127l-.429-.018-.396.009-.066-.055a.7.7 0 0 0-.314-.09l-.151.015-.185-.012a.74.74 0 0 0-.556.238 1 1 0 0 1-.166.17.6.6 0 0 0-.006.244q.016.457-.233.726l-.114.072q-.027.033-.024.063l-.034.278-.06.312q-.085.374-.067.556.025.242-.117.347-.227.176-.272.332a.4.4 0 0 0-.012.185l.021.211q.006.366-.296.701a.66.66 0 0 0-.094.284l.015.151-.015.154q.012.427-.157.565a.52.52 0 0 0-.224.511l.013.426.012.426q.087.571-.339.888l-.018.124-.015.154a.5.5 0 0 1-.094.284l-.111.103-.082.1q-.14.135-.124.287l.034.637.02.822-.41.468.021.517.021.517a.38.38 0 0 1-.148.35l-.081.1-.112.102a.5.5 0 0 0-.06.312l.02.516-.008.52q-.45.381-.372.861l.012.426.012.426q.024.242-.326.704-.082.1-.064.281l.016.151.015.151q.006.366-.22.541a1 1 0 0 0-.14.136.33.33 0 0 0-.042.187l.012 1.037.012.426.04.392a.97.97 0 0 1-.37.892q-.026.033-.02.093l-.019.124.064 1.855-.275.303-.085.069a.4.4 0 0 1-.05.097l.02.516.021.517a.38.38 0 0 1-.093.284l-.082.1-.108.133-.085.069-.024.064.033 1.858a.4.4 0 0 1-.09.314l-.112.103-.082.099-.085.07-.02.094a6 6 0 0 1-.058.951l-.148.961q-.24 1.275-.209 1.882-.002.275.345.698l.07.085.009.09q.144 4.503 1.097 7.306.087.266.217.344.227.13.215.315l.02.516.022.517q.009.09.079.175.43.324.371.665a.8.8 0 0 0 .178.257l.203.193q.033.027.04.088l.011.12-.02.094.008.091q.172.196.514.559l.272.278.133.108.105.142q-.057.647.605.55l.093.021.07.085.103.112.099.081a.4.4 0 0 0 .315.091l.395-.009.426-.012q.061-.006.278.033l.339.027q.402.051.417-.103l.009-.214q-.012-.121.042-.187l.444-.441.414-.439.166-.169.197-.172q.224-.205.356-.402.052-.096.19-.233l.224-.205.58-.607.184.012.179-.049q.208-.051.244-.299v-.305l-.033-.332a.6.6 0 0 1 .106-.163l.051-.097a.24.24 0 0 1 .088-.039q.28.063.39-.375l.042-.187.042-.188a.6.6 0 0 1 .157-.259q.027-.034.021-.094l-.012-.121q-.003-.336.505-.447.36-.066.293-.426a.38.38 0 0 1 .148-.351q.308-.274.281-.547l-.03-.302.033-.278.275-.302.305-.305q-.003-.03.088-.039l.093.021.124.018q.06-.006.088-.039l.359-.372.36-.372a.93.93 0 0 0 .296-.7v-.306l-.03-.302q-.025-.242.114-.377l.445-.442.41-.468.091-.009.121-.012q.188.042.353-.127.47-.505.487-.628-.036-.363.22-.541a.47.47 0 0 0 .179-.354l-.031-.607.052-.097.054-.066.166-.169a.35.35 0 0 0 .109-.133.7.7 0 0 0 .009-.215l.009-.214-.021-.212a.4.4 0 0 1 .012-.184.6.6 0 0 1 .106-.163l.169-.139.275-.302q.166-.17.242-.33a.61.61 0 0 1 .102-.498l.166-.17.197-.172.136-.166.109-.133a.5.5 0 0 0 .081-.405l.021-.093.055-.067.136-.166.139-.136.441-.471v-.611q-.055-.239.117-.347l.085-.07.051-.096q.115-.073.127-.257l-.015-.151.045-.157q.052-.097.161-.23l.22-.236-.03-.607q-.021-.212.178-.353a.59.59 0 0 0 .221-.541.33.33 0 0 1 .042-.188.3.3 0 0 1 .139-.135q.507-.112.87-.454.164-.2-.106-.447l-.136-.139.686-.77.139-.136.139-.136a.8.8 0 0 0 .212-.327 1.3 1.3 0 0 0 0-.305l-.003-.335q-.016-.151.154-.29l-.094-.326q-.097-.357.227-.481.35-.157.404-.223.024-.064-.003-.336-.096-.356.26-.453.239-.055.317-.184l.659-1.043.051-.096.031-.003q.093.021.133.108a.2.2 0 0 1 .075.145q.012.121-.006.245l-.072.19q-.043.188-.037.553l.027.272-.036.248q-.084.375-.477.719l-.058.036-.063-.024q-.142.106-.151.32.012.426-.073.496-.051.096-.41.163l-.148.045.12-.012.013.426.009.396a.5.5 0 0 1-.061.311l-.112.103-.111.103q-.14.135.06.299.265.218.073.42-.33.369-.837.48-.061.006-.088.04l-.051.096a2.3 2.3 0 0 0-.061.617l.031.302v.305l-.052.097-.054.066-.275.302v.611q.024.242-.115.377l-.169.139a.7.7 0 0 0-.106.163.4.4 0 0 0-.012.185l.021.211-.009.215q.015.15-.009.214a.6.6 0 0 1-.106.163l-.169.139-.054.067-.052.096-.021.094.012.121.01.091q.005.06-.022.093l-.359.372-.326.399q-.112.102-.085.374.018.181-.212.327-.198.141-.181.323l.003.335v.306q.009.09-.075.16-.393.344-.296.701l-.221.235-.19.233.009.091.021.211q.009.091-.021.094l-.991 1.075a.77.77 0 0 0-.221.541l.031.608q.003.334-.191.537l-.58.608-.012.184-.042.187a.58.58 0 0 1-.209.357l-.278.272-.271.332-.019.124.016.151a.37.37 0 0 1-.155.29q-.114.072-.244.299l.009.091.012.121q-.054.37-.393.344-.244-.006-.489.293-.133.197-.351.157-.399-.021-.393.345l.001.305q.021.212 0 .305a.76.76 0 0 1-.209.357l-.169.139-.139.136-.136.166-.139.136-.021.093.021.212.009.091-.716.773q-.193.203-.668.341-.238.055-.244.3.009.395-.191.537l-.084.07-.055.066-.356.402a1.6 1.6 0 0 1-.363.342q-.141.105-.145.38l-.012.185a.5.5 0 0 1-.103.193l-.667.647-.635.673-.19.233-.221.236a1.9 1.9 0 0 1-.45.38l-.087.04-.121.012a.4.4 0 0 0-.178.048l-.115.073-.109.133q-.109.132-.23.145l-.211.021q-.121.012-.175.078l-.139.136-.17.139q.004.03-.06.006l-.063-.024-.167-.136-.136-.139-.281.242-.169.139-.139.136-.278.272-.302-.275a1 1 0 0 0-.163-.106l-.184-.012q-.275-.003-.381-.145-.178-.256-.429-.018-.19.232-.429-.018-.173-.196-.353-.178l-.121.012-.06.006-.264-.188-.205-.223-.468-.411-.212.021-.184-.012q-.19-.072-.218-.344.004-.276-.263-.493l-.136-.139-.47-.441-.001-.305v-.305a.41.41 0 0 0-.157-.351q-.33-.242-.296-.519v-.611q-.004-.335.296-.701l.021-.093q.027-.034.024-.064l-.166-.136-.106-.142a.55.55 0 0 1-.13-.383q.018-.125-.118-.263l-.13-.079-.102-.112a.25.25 0 0 1-.052-.208.46.46 0 0 0-.126-.354l-.303-.274-.03-.303v-.305a.5.5 0 0 0-.13-.383l-.13-.079-.103-.112a.38.38 0 0 1-.09-.296l.021-.399-.042-.423q.25.067.35-.157a.13.13 0 0 0-.012-.121q-.112-.202-.35-.148-.049-.177.148-.35.138-.136.193-.203.075-.16.06-.311l-.03-.302v-.305q-.006-.365-.314-.701a.5.5 0 0 1-.121-.293l-.015-.151.018-.124q-.009-.396-.208-.559-.264-.187-.012-.426.19-.232.172-1.024l-.064-1.245-.033-1.248-.04-.087-.096-.052-.245-.311.14-.136q.246-.268.22-.541l.012-.184-.021-.212q-.088-.57.305-.915.084-.07.096-.254l-.015-.151a.4.4 0 0 1 .076-.16l.139-.136.136-.166q.05-.097-.212-.284-.163-.106-.187-.348a.4.4 0 0 1 .118-.347l.111-.103.112-.103q.105-.162.06-.311-.05-.209.149-.35.281-.242.253-.514l-.033-.637v-.611q-.018-.18.148-.35.25-.238.018-.429-.206-.224.015-.459l.085-.07.054-.066.03-.309v-.305a.61.61 0 0 0-.265-.522q-.227-.13-.06-.299l.307-.275.275-.303q.14-.135.115-.377a.57.57 0 0 0-.187-.348q-.266-.217-.263-.492l-.012-.426q-.003-.336.392-.345.426-.012.424-.347l-.064-2.465q-.036-.363.22-.541a.64.64 0 0 0 .179-.354q.033-.278-.293-.489-.2-.164-.03-.302l.111-.103.112-.103a.5.5 0 0 0 .06-.311l-.02-.212.008-.214-.009-.396-.042-.423q-.018-.182.178-.353l.14-.136q.08-.1.072-.191.045-.156.02-.398l-.011-.426q-.028-.272.296-.701a.4.4 0 0 0 .075-.161l.01-.214q.023-.369.392-.345l.184.013q.094.021.218.039.006.06.042.118.082.205.233.19l.027-.033.027-.033q-.006-.061-.108-.173.123.018.117-.042-.036-.057-.13-.079l-.033-.027a9 9 0 0 1-.166-1.051l-.021-.517-.018-.486a.38.38 0 0 1 .093-.284l.082-.1.109-.133.054-.066.051-.097-.009-.396-.012-.426q-.003-.335.296-.701a.5.5 0 0 0 .094-.284l-.015-.151.015-.154q-.01-.396.16-.535l.22-.235.224-.206q.163-.2.178-.353l-.084.069-.085.07-.109.133-.111.102a.48.48 0 0 1-.327.094 5 5 0 0 0-.882.027.4.4 0 0 1-.314-.09l-.103-.112-.136-.139q-.132-.11-.374-.085a.49.49 0 0 0-.375.221q-.215.296-.556.238l-.12.013-.092.009q-.398-.021-.586.241-.13.227-.344.218l-1.339.042q-.305 0-.552.269l-.251.239-.218.266a.45.45 0 0 1-.38.16l-.668.036-.67.006a.48.48 0 0 0-.327.094l-.082.1-.109.133a.5.5 0 0 1-.293.12l-.18.019-.119.042-.142.106-.108.133a.8.8 0 0 1-.257.178.9.9 0 0 1-.333.033l-.335.003q-.185-.012-.344.218-.249.268-.487.018-.236-.22-.453.045-.19.233-.326.094l-.17-.166-.169-.166-.136.166-1.075 1.145a.33.33 0 0 1-.175.078l-.58-.003-.547.025q-.632.093-.982-.36l-.127-.048-.181.018a.4.4 0 0 1-.288-.124l-.166-.136-.169-.166q-.232-.19-.181-.287.096-.254.377-.19.19.072.381-.161.245-.299.761-.32.366-.006.729-.347l.084-.07a.2.2 0 0 1 .088-.039.51.51 0 0 0 .417-.103l.169-.139.17-.139a.5.5 0 0 1 .292-.121l.154.015.181-.018q.4.021.556-.238.13-.227.345-.218l.912-.03q.306 0 .553-.269a.4.4 0 0 1 .257-.178l.151-.016.181-.018a.7.7 0 0 0 .173-.109l.136-.166q.162-.2.377-.19.245.006.668-.036l.088-.04.081-.099.109-.133.112-.103a.42.42 0 0 1 .296-.091l.338.028.333-.034q.365-.006.758-.35l.084-.07.088-.039 1.338-.042q.245.006.726-.378a.54.54 0 0 1 .323-.124l.154.015.154.015q.396-.008.583-.272a.46.46 0 0 1 .345-.217l2.009-.049.087-.039.085-.069.302-.336.882-.027.094.021.1.082.305.305-.03-.302q-.025-.242.114-.378l.17-.139.136-.166-.031-.607q-.009-.396.324-.429l.211-.022a.33.33 0 0 0 .175-.078l.414-.438q.302-.336-.103-.722-.269-.249-.012-.426.142-.107.148-.351l.043-.187a.4.4 0 0 1 .072-.191q.3-.365.296-.701l-.012-.426-.009-.395.051-.097.055-.066.112-.103.111-.103a.33.33 0 0 0 .061-.311v-.61l-.021-.822.38-.466a.7.7 0 0 1 .154-.595l.224-.205.223-.206.052-.096.084-.07.055-.066.021-.094-.067-1.885q-.01-.091.076-.16l.495-.538.499-.508q.193-.203.145-.381l-.009-.09-.012-.121-.021-.822.41-.468q-.09-.297.157-.565l.224-.206.19-.232q.218-.267.221-.541l-.009-.396q-.006-.366.338-.888l.009-.215.043-.187a.46.46 0 0 1 .211-.326l.275-.302.305-.306-.015-.151-.015-.151a.36.36 0 0 1 .157-.26l.19-.232.224-.206q.284-.212.229-.755-.036-.363.191-.538l.19-.233.224-.205.444-.441h.61q.212-.021.354.178a.69.69 0 0 0 .54.221q.396-.01.345.392l-.021.094.012.121.021.211a.4.4 0 0 1-.012.185.3.3 0 0 1-.106.163l-.169.139q-.112.102-.094.284l-.015.154-.018.124-.109.133-.111.102a.5.5 0 0 0-.158.26 1.3 1.3 0 0 0 0 .305v.306q.019.18-.178.353-.256.178-.193.508l.012.121-.021.093q.06.3-.19.538-.414.438.054.849.2.164.06.299l-.19.233q-.139.136-.224.205l-.175.079-.178.048q-.239.054-.347.188l-.272.332-.309.275a.83.83 0 0 0-.19.538l.012.426q.003.335-.338.888l-.048.127-.016.154q.019.181-.063.281l-.169.139-.136.166-.021.094.009.09.012.426.012.121q.006.061-.021.094l-.082.1-.111.102a2 2 0 0 0-.188.263l-.018.124.015.151a.4.4 0 0 1-.124.287q-.28.242-.263.728.02.181-.329.369l-.29.151a.8.8 0 0 0-.251.239q-.111.102-.093.284l-.015.154.015.151q.008.396-.16.535a.58.58 0 0 0-.221.54l-.021.094-.051.097q-.369.28-.309.885.028.272-.22.541-.196.173-.178.353l.009.396.012.121.009.091-.112.102-.109.133a1 1 0 0 0-.19.233l-.018.124.015.151a.4.4 0 0 1-.124.287q-.199.142-.245.299a3 3 0 0 0-.039.218l.021.211q.025.242-.386.71a.66.66 0 0 0-.094.284l.015.151.015.151a1.2 1.2 0 0 1-.054.372l.852-.024q.182-.018.344-.218l.139-.136a1 1 0 0 1 .357-.096l.181-.019.184.012.55.006.553.037q.456-.016 1.148-.115.3-.06.568-.118.137.14.345.088l.121-.012.12-.013.883-.027.474-.444 1.341-.012q.031-.003.067.054l.069.085.363.269.211-.021.215.009q.274.002.45-.076l.085-.069.051-.097q.19-.233.556-.239l1.583-.036 1.553-.033q.64-.003.964-.432.051-.097.266-.088a.7.7 0 0 1 .317.121l.133.108.103.112a.4.4 0 0 0 .314.091l1.218-.03 1.217-.031.088-.039.081-.1.305-.305.167.136.169.166q.142.2.329-.063.211-.327.55-.299a.74.74 0 0 1 .357.208q.205.224.265.218.031-.003.191-.233.194-.202.374-.221l4.019-.096q.305 0 .553-.269a.46.46 0 0 1 .344-.218q.303-.03.577.278.146.23.305 0 .245-.299.547-.329l2.224-.04 2.251-.072a.41.41 0 0 0 .35-.157q.276-.303.478-.109.238.25.489.012.22-.236.462.045.17.166.596.154l.151-.015.184.012a.4.4 0 0 0 .29-.151l.136-.166.169-.139.335-.003zm-12.586 13.892a.62.62 0 0 1 .123-.592l.082-.1a.4.4 0 0 1-.115-.232l-.018-.181q.018-.124-.018-.182l-.033-.027-.293-.184-.26-.157q-.16-.076-.426.012-.233.114-.242.329.021.517-.136.777l-.55.909q-.187.262.136.444.224.1.293.49.052.208-.42.377l-.087.04-.085.069-.26.453-.29.457q-.241.329-.102.803.13.384-.034.583l-.341.553-.341.553q-.16.23-.034.583.145.536-.072.801l-.187.263-.154.29q-.166.17-.082.405l.091.296.063.329-.311.55-.239.36q-.051.096-.03.308l.045.148-.018.124-.102.193-.133.196-.13.227-.133.196q-.124.288-.039.523.033.027.009.091l-.052.096-.29.457-.257.483q-.027.033.009.091l.043.118.039.087q.006.06-.021.094l-.124.287-.154.29.015.151.045.148a.38.38 0 0 1-.093.284l-.185.293-.157.26a.69.69 0 0 0-.093.589l.102.417q.013.121-.042.187l-.103.194-.102.193-.015.154.015.151q.048.179-.003.275-.254.514-.166.78l.063.329.091.296q.123.324-.154.595-.11.133-.052.402l.018.181a.3.3 0 0 1-.069.221l-.082.1-.078.13a.47.47 0 0 0-.027.338l.133.414.102.417a.4.4 0 0 1-.03.308l-.078.13-.079.13q-.105.163.121.293.32.151.163.411-.341.553.209.864l.359.239.094.021q.063.024.06-.006l.106-.163.136-.167a.46.46 0 0 1 .344-.217.32.32 0 0 0 .176-.079l.133-.196.444-.746.447-.716q.051-.097 0-.306l-.015-.151a.34.34 0 0 1 .015-.154l.154-.29.187-.263.393-.649.396-.62a.5.5 0 0 0 .06-.311l-.045-.148-.046-.148-.051-.208-.012-.121-.009-.091.103-.193.105-.163a.38.38 0 0 0 .031-.309l-.016-.151.016-.154.154-.29.187-.263q.29-.456.166-.779a.33.33 0 0 1 .042-.188l.133-.196q.112-.102.094-.284l-.045-.148-.016-.151a.8.8 0 0 1 .073-.19l.106-.164q.16-.23.081-.404-.081-.206.26-.759l.239-.359q.105-.164.018-.429-.14-.475.118-.958a.9.9 0 0 0 .027-.339l-.045-.148-.046-.148a.9.9 0 0 1 .064-.586l.136-.166.129-.227.13-.226a.58.58 0 0 0 .009-.52l.073-.19.103-.194q.111-.102.093-.284l-.045-.148-.015-.151a.8.8 0 0 1 .072-.19l.133-.196q.112-.104.064-.281l-.015-.151-.046-.148.052-.097.051-.097q.247-.268.103-.804-.091-.296.166-.779a.7.7 0 0 0 .03-.308l-.045-.148-.046-.148q-.1-.387.064-.586.22-.236.093-.59l-.205-.833.021-.094.021-.094q.208-.661.115-.988l-.103-.417zm-1.148 16.899.097.051q.157.045.254-.208l-.194-.103q-.157-.045-.223.205zm-7.121 3.855.193.103q.158.046.224-.206l-.067-.054-.096-.051q-.158-.045-.254.208m21.375-17.549.003.031.012.12-.027.034-.024.063-.051.097-.028.033-.054.067-.057.036-.028.033-.084.07-.03.003-.088.039-.03.003-.061.006-.03.003-.06.006-.118.042-.061.006-.087.04-.085.069-.519.296q-.23.145-.435-.078a.76.76 0 0 0-.321-.151q-.248-.037-.389.069l-.176.079-.175.078-.214-.009-.218-.039-.187-.042-.218-.04-.175.079-.175.078a.9.9 0 0 1-.396.01 17.8 17.8 0 0 1-4.571-1.771.7.7 0 0 0-.372-.054q-.303.03-.695-.236-.324-.182-.344-.392a.42.42 0 0 0-.152-.291q-.492-.347-1.093-.867a7 7 0 0 0-.109.438l.051.209.052.208.069.085.097.051.746.444q.164.107-.03.309a.56.56 0 0 0-.094.589q.236.526-.145.991l-.105.163a.7.7 0 0 1-.139.136l-.164-.106-.196-.133-.091.009-.06.006a.5.5 0 0 0-.103.194l.009.09.012.121.049.179.054.238-.09.009-.088.04q-.17.138-.124.287l.067.054q.066.054.096.051.151-.015.178-.353.003.03 0 0a2 2 0 0 1 .2-.142l.178-.049q.233-.114.402.052.102.111-.091.314-.163.2-.114.378a.56.56 0 0 1-.094.589.4.4 0 0 0-.127.257l.015.151.045.148q.031.302-.386.405-.387.099-.29.456l.326 1.432a.32.32 0 0 1-.118.347.13.13 0 0 1-.121.013q-.063-.025-.136-.139l-.099-.387q-.143-.2-.29-.154l-.055.066-.051.097-.021.094.009.09q.033.333.347.423.22.07.206-.081.166.745.208.864.067.36-.253.513-.351.158-.402.254-.055.066.033.332l.072.42.133.414q.049.179-.114.378l-.209.357-.235.389q-.158.26-.626.46a.2.2 0 0 0-.081.099q-.028.034-.022.094-.009.214.263.187.58.003.668.269l.039.088.012.121-.157.259-.154.291-.311.549.063.33.091.296a.45.45 0 0 1-.081.405l-.136.166a.5.5 0 0 0-.043.187q.125.324-.166.78l-.184.293-.157.26a.58.58 0 0 1-.275.302l-.206.081-.172.109q-.142.106-.093.284l.015.151.045.148-.414.743-.133.197-.072.19q.006.061.048.178l.012.121.009.091q-.012.184-.308.275-.444.136-.335.613l.102.417q.067.36-.323.429-.356.097-.353.432.01.396-.043.493-.024.063-.293.121l-.417.102-.417.103q-.144.076-.308-.03l-.13-.079-.13-.078-.093-.021q-.034-.027-.061.006l-.084.069-.021.094a1.66 1.66 0 0 1-.239.97q-.154.29-.45.075a.5.5 0 0 0-.405-.081l-.209.051-.208.052q-.269.057-.399-.022-.135-.138.058-.341.22-.236.063-.586l-.039-.088-.07-.084q-.166-.136-.293.12-.181.324-.441.167l-.163-.106-.193-.103a.41.41 0 0 1-.218-.344l-.103-.417-.103-.417q-.018-.182-.244-.311l-.163-.106a.3.3 0 0 1-.136-.139l.078-.13.079-.13a.7.7 0 0 0 .121-.317l-.04-.088-.012-.121-.257-1.042a.71.71 0 0 1 .064-.586l.184-.293.157-.26a.38.38 0 0 0 .094-.284l-.015-.151-.015-.151-.046-.148-.045-.148a.5.5 0 0 1 .06-.311l.206-.387-.061-.299-.063-.33a.35.35 0 0 1 .054-.371l.079-.13.078-.13a.6.6 0 0 0-.003-.335l-.102-.417-.103-.417q-.076-.146.03-.308l.079-.13.078-.13a.38.38 0 0 0 .03-.308l-.015-.152-.015-.151.079-.13.078-.129a.75.75 0 0 0 .124-.287.62.62 0 0 1-.012-.426l.072-.191.106-.163a.2.2 0 0 0 .045-.157l-.015-.151q-.051-.209 0-.305l.103-.194.106-.163q.027-.033-.036-.057l.054-.067q.134-.196.012-.489l-.036-.058.054-.066.055-.067a.44.44 0 0 0 .129-.226l.097-.254.106-.163.136-.166a.5.5 0 0 0 .102-.194l.019-.123-.015-.152q-.004-.03.051-.096a.4.4 0 0 0 .133-.197.43.43 0 0 0 .036-.247q.266-.393.115-.683a.8.8 0 0 1 .072-.191l.103-.193q.16-.23.085-.375a.6.6 0 0 1-.003-.335l.078-.13.079-.13.051-.096.051-.097-.015-.151-.045-.148a.33.33 0 0 1 .06-.311l.136-.167.073-.19a.66.66 0 0 1 .027-.644l.19-.232.188-.263q.153-.29.012-.795a.8.8 0 0 1 .093-.589l.185-.293q.078-.13.19-.233.055-.066.175-.078l.118-.042.088-.04q.117-.042.105-.163 0-.61.136-.776l.052-.097.051-.097-.015-.151-.045-.148a.33.33 0 0 1 .06-.311l.136-.166.072-.191-.015-.151-.045-.148a.4.4 0 0 1 .091-.314l.102-.193.073-.191q-.116-.232.009-.519l.13-.227.163-.199.103-.194.072-.19a.53.53 0 0 0-.009-.396.2.2 0 0 1 .021-.093l.052-.097.102-.194.103-.193q.133-.197.275-.302.118-.042.296-.091l.329-.063.088-.039.085-.07q.254-.209-.061-.299l-.097-.051-.096-.052q-.423-.263-.133-.719.26-.453.755-.686.205-.081.148-.35l-.094-.326-.06-.3q-.057-.269.145-.38l.326-.094.299-.06.629-.124.29.154.26.157a.54.54 0 0 1 .278.338l.112.508.114.538-.021.093-.051.097-.209.357.106.447q-.108.132-.006.244.285.4.462.961l.034.027.102.112.04.088.036.057.115.233.009.09.036.058.003.03q.009.09.076.145l.009.091.338.027.064.024.033.027q.078.176-.094.284-.145.076-.096.254.009.09.223.1.242-.024.269.247l.048.484.015.151.185.012.154.015q.151-.015.317.121.163.105.148.26a.58.58 0 0 0 .257.432l.456.29.487.287a.7.7 0 0 1 .178.257q.057.268.326.211.209-.051.339.027.867.432 1.722.744.284.093.368.329.113.202.257.127l.179-.049.178-.048.187.042.187.043.191.072.187.042.175-.078.176-.079.087-.039.061-.006q1.06.23 2.139.335.218.039.356-.096l.115-.073a.34.34 0 0 0 .154.015l.302-.03.179-.048.09-.01.061-.006.368.025.03-.003.091-.01.063.025.034.027.063.024.03-.003.003.03.034.027.03-.003.003.031.036.057zm20.345-9.237q.121-.012.475.166.26.158.242.281-.067.252-.342.248-.215-.009-.341.248a1.1 1.1 0 0 1-.154.29q-.11.133-.324.124-.211.021-.308.275a.7.7 0 0 1-.099.223q-.082.1-.173.109a.8.8 0 0 0-.374.221l-.136.166-.133.196q-.051.097-.26.148l-.148.046a.4.4 0 0 0-.142.106l-.103.193-.133.196-.084.07-.088.039-.444.136-.45.076q-.3.06-.508.417l-.103.193-.368.586-.326.094-.327.093q-.272.028-.341.248l-.051.097-.082.1q-.045.157-.341.247l-.206.082a.6.6 0 0 0-.136.166q-.148.351-.716.468l-.236.085a.45.45 0 0 0-.308.275.65.65 0 0 1-.507.417l-.088.039-.084.07q-.225.51-.886.607l-.208.051-.236.085q-.477.11-.426.622.07.39-.317.49l-.565.148-.535.145q-.266.087-.205.387.072.42-.091.619a1.3 1.3 0 0 0-.266.393.46.46 0 0 1-.371.251q-.214-.01-.342.247-.126.258-.269.363a3 3 0 0 1-.205.082l-.239.054-.178.048-.148.046a.5.5 0 0 0-.251.238l-.102.194-.133.196-.1.224a.87.87 0 0 1-.335.308l-.357.097-.326.093q-.266.088-.272.333-.006.55-.194.812l-.664.982-.239.055a3 3 0 0 0-.205.081q-.2.142-.142.411a.6.6 0 0 1-.049.432l-.133.197-.102.193-.215.296-.184.293-.184.293-.182.324q-.027.033.009.09l.013.121.042.118q.006.06-.021.094l-.795 1.208-.317.49-.347.492q-.028.034-.022.094l.043.118.012.12q.036.058.009.091l-.366.616-.368.587q-.027.033-.018.124l.042.117.009.091q.039.088.012.121l-.109.133-.105.163q-.136.166-.121.317a.9.9 0 0 0 .033.333l.063.329q.049.178-.142.411-.274.302-.151.625l.009.091.013.121q.1.386-.121.622-.22.236-.173.414l.076.45.076.45q.094.327-.182.629a.54.54 0 0 0-.12.317l.015.151.015.151-.366.617a1 1 0 0 1-.571.392q-.595.152-1.081-.136-.357-.209-.381-.45l-.027-.272-.058-.269a2.7 2.7 0 0 1-.057-.574l.133-.196.133-.196a.48.48 0 0 0 .048-.432l-.076-.451-.072-.42q-.066-.359.229-1.06a.9.9 0 0 0 .028-.338l-.064-.33a.63.63 0 0 1 .151-.625q.194-.202.172-.414l-.202-1.109-.085-.541-.118-.568a.58.58 0 0 1 .079-.435l.133-.196.103-.194-.055-.543-.115-.538a.53.53 0 0 1 .079-.435l.109-.133.078-.13q.103-.193.058-.342l-.127-.658-.127-.659.118-.042.117-.042q.197-.173.179-.354a4 4 0 0 0-.124-.628.4.4 0 0 1 .142-.411.68.68 0 0 0 .196-.478l-.054-.238-.024-.242-.003-.03q.241-.024.314-.215l.051-.097.021-.093-.024-.242a2 2 0 0 1-.006-.365.3.3 0 0 0 .118-.043q.196-.172.151-.32-.003-.03-.033-.027-.064-.024-.118.042l.018-.124q-.003-.335.106-.468a1.1 1.1 0 0 0 .157-.565l-.061-.299-.03-.302-.036-.363q.109-.133.084-.375l-.093-.326a.9.9 0 0 1-.034-.332.8.8 0 0 1 .073-.191l.133-.196q.16-.23.109-.438a2.8 2.8 0 0 1-.127-.659q-.003-.03.051-.096l.082-.1.051-.097.082-.099a.4.4 0 0 0 .072-.191l-.021-.211q-.03-.303.109-.438a.6.6 0 0 0 .172-.414l-.021-.212-.021-.211q-.098-.356.09-.62l.184-.293.185-.293a3 3 0 0 1 .402-.559q.48-.078.54-.39a.8.8 0 0 0-.03-.302l-.063-.329-.04-.088-.012-.121.052-.096.051-.097.236-.39-.36-.238-.1-.082q-.033-.027-.036-.057l.133-.197.103-.193q.136-.166.048-.432-.078-.175.112-.408.193-.202.151-.625-.063-.33.384-.435l.208-.052.209-.051a1 1 0 0 0 .205-.082q.055-.067.133-.196l.103-.194.084-.069q.055-.066.058-.036l.746.444.127.658.051.209.055.239q.075.144-.028.338l-.078.13-.109.133a.5.5 0 0 0-.06.311l.018.181.015.151-.079.13-.105.163a.75.75 0 0 0-.124.287.54.54 0 0 1-.018.429l-.07.221-.133.196q-.051.097-.03.309l.015.151-.015.154-.081.099-.052.097-.081.1-.052.097-.015.154.049.178a.5.5 0 0 1-.061.311l-.368.586-.266.393.063.329.094.327a.49.49 0 0 1-.109.438q-.278.272-.13.837.063.329-.193.812a.64.64 0 0 0-.058.342l.046.148.015.151q.075.45-.088.65a.63.63 0 0 0-.151.625l.04.088.012.12a.57.57 0 0 1-.121.623.54.54 0 0 0-.121.317l-.015.154.015.151q.015.152-.121.317l-.106.164-.078.13a.7.7 0 0 0-.009.214l.054.239q.143.504-.16.84l-.084.069-.049.127.009.091.043.118q.141.81.256 1.347l-.033-.027-.09.009-.088.039q-.226.176-.151.32.003.031.069.085.034.027.094.021.151-.015.205-.387l.003.031-.003-.031a.5.5 0 0 1 .112-.102l.061-.006.027-.034.927-1.404q.557-.85.707-.865a.7.7 0 0 0 .402-.253l.133-.197.106-.163.115-.072.09-.01.118-.042q.091-.009.118-.042l.187-.263.215-.296.133-.197.102-.193a.7.7 0 0 1 .372-.251q.212-.021.471-.474l.399-.589.085-.07.087-.039a.58.58 0 0 0 .405-.224l.136-.166.103-.193.084-.07.118-.042.088-.039.118-.043a.5.5 0 0 0 .169-.139l.103-.193q.156-.26.338-.278.302-.03.508-.417.123-.287.338-.278.244.006.372-.251l.102-.193.136-.166q.088-.04.206-.082l.238-.054q.447-.106.68-.526l.236-.39a1 1 0 0 1 .541-.389l.652-.188q.36-.066.514-.356l.184-.293.184-.293a.5.5 0 0 1 .221-.236l.175-.079.148-.045.151-.015.178-.048a.38.38 0 0 0 .254-.209l.236-.39.326-.093.327-.094q.272-.027.371-.251l.103-.193a.5.5 0 0 1 .136-.166q.088-.04.205-.082l.239-.054.208-.052q.152-.015.206-.081.088-.04.136-.167l.103-.193q.105-.163.371-.251.508-.112.888-.577l.052-.096.087-.04 1.1-.293q.387-.1.852-.634a.7.7 0 0 1 .29-.151l.178-.049.151-.015q.267-.088.378-.19.242-.33.332-.339"/></svg>